<svg xmlns="http://www.w3.org/2000/svg" xmlns:xlink="http://www.w3.org/1999/xlink" id="Element_34" x="0px" y="0px" width="80px" height="80px" viewBox="0 0 80 80" xml:space="preserve"><g> <path d="M57.854,18.943c0-1.089-0.875-1.976-1.95-1.976H23.549c-1.075,0-1.95,0.887-1.95,1.976v21.614 c0,1.09,0.875,1.978,1.95,1.978h32.354c1.075,0,1.95-0.887,1.95-1.978V18.943z M55.599,40.249H23.854V19.253h31.745V40.249z"></path> <path d="M27.296,53.203h-11.15c-0.907,0-1.646,0.747-1.646,1.667v8.419c0,0.918,0.737,1.668,1.646,1.668h11.15 c0.906,0,1.646-0.748,1.646-1.668V54.87C28.941,53.95,28.203,53.203,27.296,53.203z M27.293,63.289H16.146v-8.418h11.15 L27.293,63.289z"></path> <path d="M45.576,53.203H34.424c-0.906,0-1.645,0.747-1.645,1.668v8.42c0,0.917,0.737,1.667,1.645,1.667h11.152 c0.906,0,1.646-0.748,1.646-1.667v-8.42C47.221,53.95,46.482,53.203,45.576,53.203z M45.572,63.289H34.424v-8.418h11.152 L45.572,63.289z"></path> <path d="M63.854,53.203H52.703c-0.906,0-1.646,0.747-1.646,1.668v8.42c0,0.917,0.738,1.667,1.646,1.667h11.151 c0.905,0,1.646-0.748,1.646-1.667v-8.42C65.5,53.95,64.762,53.203,63.854,53.203z M63.853,63.289H52.703v-8.418h11.151 L63.853,63.289z"></path> <path d="M22.27,49.313c0-0.286,0.374-0.604,0.91-0.604h15.724v3.336h1.646v-3.336h16.013c0.342,0,0.621,0.238,0.621,0.533v3.13 h1.645v-3.13c0-1.214-1.015-2.201-2.266-2.201H40.549v-3.496h-1.646v3.496H23.18c-1.409,0-2.555,1.02-2.555,2.271v3.06h1.646 L22.27,49.313L22.27,49.313z"></path> <path d="M45.237,24.105h-9.963l-0.062-0.302c-0.091-0.609-0.52-0.973-1.142-0.973h-2.41c-0.002,0-0.003,0-0.006,0 c-0.326,0-0.589,0.266-0.589,0.593c0,0.326,0.264,0.593,0.589,0.593c0.003,0,0.004-0.001,0.006-0.001l2.395,0.003l1.719,8.436 c0.124,0.497,0.389,0.771,0.789,0.858c-0.684,0.229-1.181,0.87-1.181,1.633c0,0.953,0.77,1.727,1.717,1.727 c0.945,0,1.715-0.773,1.715-1.727c0-0.716-0.436-1.331-1.054-1.593h5.419c-0.617,0.261-1.054,0.877-1.054,1.593 c0,0.953,0.77,1.727,1.715,1.727c0.946,0,1.716-0.773,1.716-1.727c0-0.716-0.436-1.331-1.053-1.593h0.237 c0.004,0,0.007,0.002,0.013,0.002c0.324,0,0.589-0.266,0.589-0.592s-0.262-0.588-0.582-0.593v-0.003H36.92l-0.141-0.693h7.097 c0.34,0,0.971,0,1.172-0.933l1.129-5.239c0.083-0.287,0.033-0.581-0.136-0.809C45.856,24.25,45.558,24.105,45.237,24.105z M43.843,34.404c0.297,0,0.538,0.243,0.538,0.541c0,0.299-0.241,0.541-0.538,0.541c-0.296,0-0.538-0.242-0.538-0.541 C43.305,34.647,43.546,34.404,43.843,34.404z M37.101,34.404c0.296,0,0.538,0.243,0.538,0.541c0,0.299-0.242,0.541-0.538,0.541 s-0.538-0.242-0.538-0.541C36.563,34.647,36.805,34.404,37.101,34.404z M43.896,30.289c-0.007,0-0.014,0-0.021,0h-7.341l-1.019-5 h9.46L43.896,30.289z"></path></g></svg>