<svg xmlns="http://www.w3.org/2000/svg" xmlns:xlink="http://www.w3.org/1999/xlink" id="Element_41" x="0px" y="0px" width="80px" height="80px" viewBox="0 0 80 80" xml:space="preserve"><g> <g> <g> <path fill="#181818" d="M25.857,12.03l12.581,36.663h-2.595l-3.422-10.379H15.017l-3.479,10.379H8.939L21.519,12.03H25.857 M15.766,35.981h15.842l-6.994-21.619h-1.791L15.766,35.981 M25.857,10.03h-4.339c-0.854,0-1.614,0.543-1.892,1.351L7.048,48.044 c-0.21,0.611-0.111,1.286,0.264,1.812c0.376,0.525,0.981,0.838,1.628,0.838h2.599c0.859,0,1.623-0.549,1.896-1.364l3.021-9.015 h14.52l2.969,9.005c0.271,0.82,1.036,1.374,1.899,1.374h2.595c0.646,0,1.252-0.313,1.628-0.838 c0.375-0.525,0.474-1.2,0.264-1.812L27.749,11.381C27.472,10.573,26.712,10.03,25.857,10.03L25.857,10.03z M18.522,33.981 l5.19-15.903l5.146,15.903H18.522L18.522,33.981z"></path> </g> </g></g><g> <g> <path fill="#181818" d="M71.762,39.891c0-0.869-0.803-1.579-1.783-1.579H47.564c-0.98,0-1.783,0.71-1.783,1.579 s0.803,1.579,1.783,1.579h22.414C70.959,41.47,71.762,40.76,71.762,39.891z"></path> </g></g><g> <path fill="#181818" d="M71.762,49.115c0-0.869-0.803-1.58-1.783-1.58l-22.414,0.001c-0.98,0-1.783,0.71-1.783,1.579 c0,0.868,0.803,1.578,1.783,1.578h22.414C70.959,50.693,71.762,49.983,71.762,49.115z"></path></g><g> <g> <path fill="#181818" d="M71.762,67.561c0-0.868-0.803-1.578-1.783-1.578H7.484c-0.981,0-1.783,0.71-1.783,1.578 c0,0.869,0.802,1.58,1.783,1.58l62.494-0.001C70.959,69.14,71.762,68.43,71.762,67.561z"></path> </g> <g> <path fill="#181818" d="M71.762,58.338c0-0.869-0.803-1.58-1.783-1.58H7.484c-0.981,0-1.783,0.711-1.783,1.58 s0.802,1.582,1.783,1.582h62.494C70.959,59.92,71.762,59.207,71.762,58.338z"></path> </g></g></svg>