<svg xmlns="http://www.w3.org/2000/svg" xmlns:xlink="http://www.w3.org/1999/xlink" id="Element_21" x="0px" y="0px" width="80px" height="80px" viewBox="0 0 80 80" xml:space="preserve"><path fill="none" stroke="#000000" stroke-width="2.5" stroke-miterlimit="10" d="M27.905,40.797c0,0.905-0.741,1.646-1.646,1.646 H13.092c-0.905,0-1.646-0.74-1.646-1.646V27.629c0-0.905,0.741-1.646,1.646-1.646h13.167c0.905,0,1.646,0.741,1.646,1.646V40.797z"></path><path fill="none" stroke="#000000" stroke-width="2.5" stroke-miterlimit="10" d="M27.905,61.371c0,0.905-0.741,1.646-1.646,1.646 H13.092c-0.905,0-1.646-0.741-1.646-1.646V48.203c0-0.904,0.741-1.646,1.646-1.646h13.167c0.905,0,1.646,0.741,1.646,1.646V61.371z"></path><path fill="none" stroke="#000000" stroke-width="2.5" stroke-miterlimit="10" d="M48.479,40.797c0,0.905-0.74,1.646-1.646,1.646 H33.666c-0.905,0-1.646-0.74-1.646-1.646V27.629c0-0.905,0.741-1.646,1.646-1.646h13.168c0.905,0,1.646,0.741,1.646,1.646V40.797z"></path><path fill="none" stroke="#000000" stroke-width="2.5" stroke-miterlimit="10" d="M48.479,61.371c0,0.905-0.74,1.646-1.646,1.646 H33.666c-0.905,0-1.646-0.741-1.646-1.646V48.203c0-0.904,0.741-1.646,1.646-1.646h13.168c0.905,0,1.646,0.741,1.646,1.646V61.371z"></path><path fill="none" stroke="#000000" stroke-width="2.5" stroke-miterlimit="10" d="M69.055,40.797c0,0.905-0.741,1.646-1.646,1.646 H54.24c-0.904,0-1.646-0.74-1.646-1.646V27.629c0-0.905,0.741-1.646,1.646-1.646h13.168c0.905,0,1.646,0.741,1.646,1.646V40.797z"></path><path fill="none" stroke="#000000" stroke-width="2.5" stroke-miterlimit="10" d="M69.055,61.371c0,0.905-0.741,1.646-1.646,1.646 H54.24c-0.904,0-1.646-0.741-1.646-1.646V48.203c0-0.904,0.741-1.646,1.646-1.646h13.168c0.905,0,1.646,0.741,1.646,1.646V61.371z"></path></svg>