<svg xmlns="http://www.w3.org/2000/svg" xmlns:xlink="http://www.w3.org/1999/xlink" id="Element_2" x="0px" y="0px" width="100px" height="100px" viewBox="0 0 100 100" xml:space="preserve"><g> <g> <polygon points="47.41,34.248 48.214,62.748 51.688,62.748 52.489,34.248 "></polygon> <path d="M49.952,67.027c-1.847,0-3.188,1.414-3.188,3.363c0,1.947,1.341,3.36,3.188,3.36c1.876,0,3.187-1.382,3.187-3.36 C53.139,68.379,51.858,67.027,49.952,67.027z"></path> </g> <path d="M86.652,73.779L55.506,19.824c-1.141-1.977-3.268-3.205-5.551-3.205c-2.289,0-4.416,1.228-5.553,3.203L13.251,73.777 c-1.139,1.971-1.138,4.43,0.003,6.418c1.148,1.965,3.275,3.187,5.551,3.187h62.302c2.282,0,4.41-1.227,5.552-3.2 C87.794,78.208,87.791,75.755,86.652,73.779z M83.386,78.182c-0.452,0.772-1.265,1.197-2.288,1.197H18.801 c-1.01,0-1.845-0.435-2.289-1.193c-0.475-0.82-0.475-1.76-0.001-2.578l31.148-53.925c0.466-0.805,1.343-1.305,2.288-1.305 c0.951,0,1.805,0.496,2.287,1.326L83.384,75.6C83.851,76.408,83.852,77.374,83.386,78.182z"></path></g></svg>