<svg xmlns="http://www.w3.org/2000/svg" xmlns:xlink="http://www.w3.org/1999/xlink" id="Element_24" x="0px" y="0px" width="80px" height="80px" viewBox="0 0 80 80" xml:space="preserve"><g> <path fill="#030303" d="M53.127,45.81c1.25,0,2.266-1.017,2.266-2.267c0-1.248-1.016-2.266-2.266-2.266 c-1.248,0-2.265,1.018-2.265,2.266C50.862,44.793,51.879,45.81,53.127,45.81z M53.127,42.427c0.616,0,1.117,0.501,1.117,1.116 c0,0.617-0.501,1.119-1.117,1.119c-0.615,0-1.116-0.502-1.116-1.119C52.011,42.928,52.512,42.427,53.127,42.427z"></path> <path fill="#030303" d="M61.262,55.664h-1.089l-5.076-4.973c-0.224-0.218-0.579-0.218-0.802-0.001l-2.076,2.016l-5.979-6.026 c-0.216-0.219-0.6-0.22-0.815-0.002l-8.92,8.986h-1.077c-0.316,0-0.574,0.261-0.574,0.579c0,0.315,0.257,0.578,0.574,0.578h1.292 h18.227h5.025h1.291c0.318,0,0.574-0.263,0.574-0.578C61.836,55.925,61.58,55.664,61.262,55.664z M54.693,51.89l3.869,3.774h-3.373 l-2.129-2.196L54.693,51.89z M45.832,47.868l7.736,7.796H38.096L45.832,47.868z"></path></g><path fill="none" stroke="#000000" stroke-width="2" stroke-miterlimit="10" d="M18.316,24.027V21.57c0-1.65,1.35-3,3-3h39.367 c1.65,0,3,1.35,3,3v9.669"></path><path fill="none" stroke="#000000" stroke-width="2" stroke-miterlimit="10" d="M26.417,54.09H15.75c-1.65,0-3-1.35-3-3V30.027 c0-1.65,1.35-3,3-3h26.808c1.65,0,3,1.336,3,2.969s0,1.379,0,1.379"></path><g> <path fill="none" stroke="#000000" stroke-width="2" stroke-miterlimit="10" d="M68.875,58.684c0,1.65-1.35,3-3,3H32.51 c-1.65,0-3-1.35-3-3V36.943c0-1.65,1.35-3,3-3h33.365c1.65,0,3,1.35,3,3V58.684z"></path></g></svg>