<svg xmlns="http://www.w3.org/2000/svg" xmlns:xlink="http://www.w3.org/1999/xlink" x="0px" y="0px" width="80px" height="80px" viewBox="0 0 80 80" xml:space="preserve"><g id="Element_4_1"> <g> <path d="M35.419,39.002l-1.637-0.913l-2.445,1.348l-0.195-0.092l0.022-0.099l0.601-2.542l-2.284-1.906l3.046-0.314l1.11-2.419 c0.042-0.037,0.096-0.058,0.152-0.058h0.029l0.096,0.039l0.022,0.041l0.452,0.977c0.096-0.025,0.189-0.059,0.289-0.067 l0.758-0.067l-0.559-1.239c-0.098-0.212-0.253-0.389-0.449-0.51l-0.056-0.03c-0.172-0.101-0.373-0.153-0.585-0.153 c-0.235,0-0.462,0.063-0.657,0.184c-0.204,0.132-0.356,0.307-0.452,0.52l-0.833,1.834l-0.073,0.006l-2.047,0.184 c-0.232,0.022-0.45,0.107-0.627,0.245c-0.187,0.141-0.323,0.332-0.397,0.554c-0.073,0.213-0.08,0.44-0.02,0.659 c0.067,0.229,0.192,0.422,0.371,0.572l1.585,1.322l-0.459,1.944c-0.055,0.229-0.037,0.464,0.052,0.678 c0.078,0.208,0.23,0.394,0.43,0.528c0.187,0.13,0.408,0.202,0.642,0.211l0.06,0.002l0.009-0.002 c0.219-0.009,0.408-0.062,0.581-0.157l1.834-1.033l1.394,0.782L35.419,39.002z"></path> <path d="M51.273,34.523c-0.071-0.221-0.208-0.412-0.396-0.555c-0.178-0.138-0.395-0.223-0.629-0.246l-2.118-0.188l-0.834-1.835 c-0.095-0.213-0.248-0.388-0.454-0.521c-0.365-0.226-0.881-0.238-1.237-0.03l-0.063,0.035c-0.19,0.118-0.346,0.294-0.444,0.508 l-0.559,1.238L45.334,33c0.089,0.009,0.171,0.039,0.256,0.061l0.469-1.019l0.047-0.019c0.048-0.027,0.165-0.018,0.232,0.042 l0.031,0.042l1.079,2.376l3.046,0.314l-2.285,1.906l0.624,2.643l-0.195,0.089l-2.445-1.346l-1.612,0.899l0.241,1.027l1.371-0.77 l1.832,1.034c0.174,0.096,0.363,0.147,0.563,0.153l0.087,0.002c0.233-0.009,0.454-0.081,0.64-0.209 c0.201-0.137,0.354-0.323,0.43-0.526c0.09-0.219,0.107-0.453,0.054-0.682l-0.457-1.944l0.06-0.049l1.525-1.273 c0.175-0.148,0.303-0.346,0.368-0.573C51.354,34.966,51.347,34.732,51.273,34.523z"></path> </g> <g> <path d="M71.598,39.968c-0.314-0.42-1.229-0.922-3.797-0.922c-1.674,0-3.819,0.208-6.56,0.635l-0.268,0.042l0.284,1.691 l0.246-0.038c2.355-0.37,4.99-0.609,6.711-0.609c0.284,0,0.554,0.007,0.826,0.021l0.975,0.053L69.61,41.72 c-2.603,5.659-2.596,9.772-2.592,11.982L67.008,55l-0.743-0.094c-3.95-0.492-8.273-1.747-11.284-3.275 c-1.159-0.59-2.104-1.566-1.205-4.67l-1.67-0.488c-0.956,3.301-0.276,5.486,2.075,6.68c3.517,1.783,8.445,3.147,12.861,3.561 c0.648,0.06,1.043-0.251,1.144-0.34c0.551-0.497,0.575-1.257,0.573-2.67c-0.004-2.251-0.011-6.438,2.934-12.299 C71.939,40.904,71.905,40.381,71.598,39.968z"></path> <path d="M8.28,41.403c2.939,5.856,2.934,10.047,2.931,12.298c-0.001,1.414,0.024,2.174,0.577,2.674 c0.117,0.104,0.448,0.346,0.974,0.346c0.054,0,0.109-0.003,0.167-0.008c4.426-0.417,9.353-1.781,12.859-3.561 c2.355-1.196,3.035-3.382,2.075-6.682l-1.669,0.49c0.899,3.112-0.101,4.108-1.204,4.67c-3.015,1.528-7.339,2.783-11.286,3.275 L12.956,55l-0.003-1.297c0.002-2.214,0.006-6.334-2.591-11.979L9.96,40.852l0.969-0.058c0.251-0.015,0.539-0.022,0.857-0.022 c1.771,0,4.273,0.227,6.693,0.607l0.233,0.035l0.284-1.69l-0.258-0.041c-2.736-0.429-4.884-0.637-6.564-0.637 c-2.572,0-3.489,0.504-3.805,0.927C8.066,40.378,8.033,40.913,8.28,41.403z"></path> <path d="M64.21,31.396c0.203-0.743,0.1-1.522-0.293-2.192c-0.392-0.67-1.026-1.148-1.787-1.348 c-0.1-0.027-10.297-2.654-22.132-2.654c-12.964,0-21.654,2.496-22.018,2.603c-1.54,0.454-2.455,2.065-2.039,3.592l4.249,15.564 c0.338,1.234,1.478,2.097,2.771,2.097c0.289,0,0.573-0.042,0.844-0.125c0.356-0.104,8.764-2.521,15.909-2.521 c0.229,0,0.457,0.002,0.686,0.008c7.697,0.166,15.115,2.272,15.936,2.512c0.277,0.084,0.563,0.127,0.852,0.127 c1.295,0,2.435-0.861,2.771-2.096L64.21,31.396z M58.233,46.509c-0.114,0.444-0.593,0.793-1.089,0.793 c-0.103,0-0.202-0.016-0.295-0.047c-0.323-0.097-8.072-2.401-16.412-2.586c-0.244-0.006-0.488-0.008-0.732-0.008 c-7.762,0-16.063,2.493-16.412,2.599c-0.107,0.031-0.21,0.046-0.316,0.046c-0.496,0-0.932-0.328-1.06-0.797l-4.25-15.565 c-0.168-0.616,0.211-1.288,0.827-1.467c0.929-0.259,9.413-2.528,21.505-2.528c11.449,0,21.256,2.488,21.668,2.594 c0.299,0.076,0.549,0.266,0.705,0.534c0.153,0.265,0.194,0.571,0.117,0.863L58.233,46.509z"></path> </g></g><g id="Element_4_2"> <path d="M46.523,34.188c-0.084-0.26-0.246-0.485-0.47-0.655c-0.209-0.162-0.466-0.262-0.742-0.289l-2.871-0.258l-0.029-0.066 l-1.104-2.426c-0.109-0.244-0.293-0.455-0.534-0.611c-0.403-0.249-1.079-0.265-1.471-0.035l-0.07,0.038 c-0.229,0.143-0.411,0.351-0.523,0.599l-1.139,2.502L34.7,33.24c-0.273,0.025-0.533,0.126-0.751,0.291 c-0.214,0.164-0.373,0.384-0.461,0.636c-0.091,0.261-0.1,0.543-0.025,0.795c0.075,0.264,0.227,0.495,0.439,0.67l2.145,1.796 l-0.63,2.67c-0.055,0.261-0.033,0.531,0.061,0.759c0.101,0.258,0.275,0.476,0.506,0.633c0.219,0.15,0.48,0.238,0.757,0.253h0.076 c0.119-0.001,0.235-0.016,0.347-0.045c0.137-0.038,0.25-0.084,0.354-0.142l2.482-1.394l2.483,1.397l0.378,0.143 c0.103,0.024,0.201,0.039,0.293,0.041v0.003h0.102c0.273-0.01,0.533-0.096,0.751-0.246c0.236-0.155,0.422-0.382,0.512-0.623 c0.105-0.255,0.127-0.529,0.063-0.798l-0.621-2.646l0.06-0.049l2.092-1.748c0.208-0.177,0.356-0.405,0.438-0.677 C46.616,34.708,46.607,34.433,46.523,34.188z M45.452,34.864l-2.631,2.195l0.765,3.248c0.017,0.069,0.01,0.134-0.02,0.203 c-0.017,0.052-0.064,0.109-0.136,0.155c-0.053,0.036-0.115,0.06-0.18,0.066l-0.063,0.001c-0.066,0-0.142-0.02-0.201-0.053L40,39 l-2.988,1.678c-0.03,0.017-0.11,0.057-0.197,0.057l-0.032-0.002c-0.077-0.005-0.152-0.029-0.218-0.073 c-0.063-0.041-0.107-0.099-0.139-0.175c-0.021-0.059-0.025-0.117-0.013-0.172l0.77-3.257l-2.623-2.197 c-0.058-0.047-0.097-0.105-0.116-0.177c-0.017-0.056-0.013-0.121,0.011-0.185c0.021-0.064,0.062-0.122,0.116-0.165 c0.065-0.05,0.14-0.077,0.223-0.085l3.46-0.308l1.385-3.041c0.031-0.067,0.083-0.124,0.152-0.164 c0.073-0.042,0.158-0.051,0.217-0.051c0.041,0,0.143,0.005,0.217,0.051c0.068,0.044,0.117,0.099,0.149,0.168l1.382,3.037 l3.462,0.312c0.081,0.008,0.152,0.035,0.213,0.081c0.059,0.045,0.1,0.101,0.125,0.172c0.018,0.063,0.022,0.122,0.015,0.168 C45.544,34.756,45.505,34.815,45.452,34.864z"></path></g></svg>