<svg xmlns="http://www.w3.org/2000/svg" xmlns:xlink="http://www.w3.org/1999/xlink" id="Element_31" x="0px" y="0px" width="80px" height="80px" viewBox="0 0 80 80" xml:space="preserve"><g> <path fill="#030303" stroke="#000000" stroke-width="0.25" stroke-miterlimit="10" d="M34.593,42.212 c-1.158,0-2.101,0.939-2.101,2.095s0.942,2.096,2.101,2.096c1.156,0,2.096-0.94,2.096-2.096S35.749,42.212,34.593,42.212z M34.593,45.229c-0.511,0-0.927-0.413-0.927-0.922c0-0.507,0.416-0.92,0.927-0.92c0.508,0,0.921,0.413,0.921,0.92 C35.514,44.807,35.092,45.229,34.593,45.229z"></path> <path fill="#030303" stroke="#000000" stroke-width="0.25" stroke-miterlimit="10" d="M22.613,52.686v2.564H39.25v-2.564h-9.782 v-3.564h9.782V47.17H17.763c-1.74,0-3.618-1.216-3.618-3.18v-2.838H39.25v-1.338H14.146V23.009c0-1.792,1.657-3.307,3.618-3.307 h33.659c1.774,0,3.675,1.329,3.675,3.307v9.741h1.951v-9.74c0-2.9-2.523-5.26-5.626-5.26H17.763c-3.071,0-5.569,2.359-5.569,5.26 v20.98c0,2.877,2.446,5.131,5.569,5.131h9.753v3.564H22.613z"></path></g><path stroke="#000000" stroke-width="0.25" stroke-miterlimit="10" d="M54.435,34.125c-13.887,0-13.894,1.964-13.894,2.611l0,0 v23.428c0,1.159,0.632,1.686,1.182,2.015l0.167,0.081c2.007,0.74,7.009,1.843,12.565,1.843c5.583,0,10.423-1.148,12.463-1.85 c0.683-0.284,1.411-1.009,1.411-2.188V36.737C68.329,36.091,68.329,34.125,54.435,34.125z M66.329,52.754 c-1.326,0.518-5.809,1.045-11.895,1.045c-6.503,0-10.696-0.581-11.894-1.041v-5.813c2.517,0.659,7.465,0.961,11.894,0.961 c4.159,0,9.276-0.261,11.895-0.956V52.754z M66.329,44.869c-1.145,0.453-5.337,1.037-11.895,1.037 c-6.494,0-10.723-0.588-11.894-1.04v-6.5c1.815,0.537,5.276,0.983,11.894,0.983s10.079-0.446,11.895-0.983V44.869z M54.435,36.125 c4.461,0,7.965,0.282,10.053,0.612c-2.089,0.33-5.592,0.612-10.053,0.612c-4.46,0-7.964-0.283-10.052-0.612 C46.471,36.407,49.974,36.125,54.435,36.125z M66.209,60.384c-1.734,0.595-6.424,1.719-11.754,1.719c-5.21,0-9.85-0.995-11.78-1.686 c-0.091-0.059-0.115-0.085-0.116-0.085c0,0-0.018-0.043-0.018-0.168v-5.325c2.513,0.659,7.484,0.96,11.894,0.96 c4.366,0,9.383-0.3,11.895-0.956v5.222C66.329,60.297,66.216,60.379,66.209,60.384z"></path></svg>