<svg xmlns="http://www.w3.org/2000/svg" xmlns:xlink="http://www.w3.org/1999/xlink" id="Element_19" x="0px" y="0px" width="80px" height="80px" viewBox="0 0 80 80" xml:space="preserve"><path d="M47.451,17.298c-0.391,0-0.779,0.011-1.166,0.03c2.618,0.558,5.078,1.542,7.305,2.877 c8.871,2.652,15.36,10.886,15.36,20.618c0,9.731-6.488,17.964-15.358,20.617c-2.226,1.336-4.686,2.32-7.303,2.879 c0.385,0.019,0.772,0.029,1.162,0.029c12.957,0,23.499-10.554,23.499-23.525C70.95,27.852,60.408,17.298,47.451,17.298z"></path><path d="M40.268,17.298c-0.474,0-0.942,0.018-1.409,0.046c2.491,0.539,4.837,1.466,6.975,2.713 c9.16,2.465,15.934,10.828,15.934,20.766c0,9.939-6.773,18.302-15.936,20.766c-2.138,1.246-4.483,2.173-6.975,2.713 c0.467,0.027,0.937,0.046,1.411,0.046c12.957,0,23.499-10.554,23.499-23.525C63.767,27.852,53.225,17.298,40.268,17.298z"></path><g> <g> <path d="M32.435,64.298c-12.958,0-23.501-10.542-23.501-23.5c0-12.958,10.542-23.5,23.501-23.5 c12.957,0,23.499,10.542,23.499,23.5C55.934,53.756,45.392,64.298,32.435,64.298z M32.435,19.298 c-11.855,0-21.501,9.645-21.501,21.5s9.646,21.5,21.501,21.5c11.854,0,21.499-9.645,21.499-21.5S44.289,19.298,32.435,19.298z"></path> <path d="M32.435,64.423c-13.027,0-23.626-10.598-23.626-23.625s10.599-23.625,23.626-23.625c13.026,0,23.624,10.598,23.624,23.625 S45.461,64.423,32.435,64.423z M32.435,17.423c-12.89,0-23.376,10.486-23.376,23.375s10.486,23.375,23.376,23.375 c12.889,0,23.374-10.485,23.374-23.375S45.323,17.423,32.435,17.423z M32.435,62.423c-11.925,0-21.626-9.701-21.626-21.625 c0-11.924,9.701-21.625,21.626-21.625c11.924,0,21.624,9.701,21.624,21.625C54.059,52.722,44.358,62.423,32.435,62.423z M32.435,19.423c-11.787,0-21.376,9.589-21.376,21.375c0,11.786,9.589,21.375,21.376,21.375c11.786,0,21.374-9.589,21.374-21.375 C53.809,29.012,44.221,19.423,32.435,19.423z"></path> </g></g><g> <path fill="none" stroke="#000000" stroke-width="2" stroke-miterlimit="10" d="M32.769,30.437c0.243-0.494,0.642-0.494,0.885,0 l2.755,5.582c0.243,0.494,0.888,0.962,1.432,1.041l6.16,0.895c0.544,0.079,0.667,0.458,0.273,0.842l-4.458,4.345 c-0.394,0.385-0.64,1.142-0.547,1.684l1.053,6.136c0.093,0.542-0.229,0.776-0.716,0.52l-5.51-2.896 c-0.487-0.257-1.284-0.257-1.771-0.001l-5.51,2.897c-0.487,0.256-0.809,0.021-0.716-0.521l1.053-6.136 c0.093-0.542-0.153-1.299-0.547-1.684l-4.457-4.345c-0.394-0.384-0.271-0.763,0.273-0.841l6.16-0.896 c0.544-0.079,1.189-0.547,1.432-1.041L32.769,30.437z"></path></g></svg>