<svg xmlns="http://www.w3.org/2000/svg" xmlns:xlink="http://www.w3.org/1999/xlink" id="Element_37" x="0px" y="0px" width="80px" height="80px" viewBox="0 0 80 80" xml:space="preserve"><g> <path fill="none" stroke="#000000" stroke-width="2.25" stroke-miterlimit="10" d="M60.575,55.773c0,1.65-1.35,3-3,3H20.092 c-1.65,0-3-1.35-3-3V18.291c0-1.65,1.35-3,3-3h37.483c1.65,0,3,1.35,3,3V55.773z"></path></g><g> <g> <path stroke="#000000" stroke-width="0.5" stroke-miterlimit="10" d="M35.092,46.245c-2.53,0-4.877-0.685-6.976-2.037l-1.42-0.914 l1.682,0.152c0.297,0.027,0.633,0.041,1.011,0.041c1.574,0,3.032-0.4,4.349-1.19c-0.614-0.147-1.179-0.419-1.688-0.813 c-0.805-0.624-1.368-1.418-1.672-2.361l-0.194-0.603l0.63,0.063c0.053,0.006,0.104,0.011,0.156,0.015 c-0.39-0.265-0.745-0.589-1.062-0.973c-0.731-0.883-1.101-1.903-1.101-3.032v-0.811l0.625,0.37c0.133,0.078,0.27,0.148,0.408,0.21 c-0.159-0.206-0.303-0.424-0.435-0.655c-0.397-0.703-0.598-1.484-0.598-2.322c0-0.841,0.231-1.653,0.687-2.415l0.308-0.512 l0.373,0.467c1.048,1.317,2.351,2.381,3.87,3.161c1.374,0.704,2.848,1.128,4.391,1.264c-0.017-0.188-0.025-0.374-0.025-0.56 c0-0.853,0.216-1.662,0.642-2.407c0.426-0.746,1.014-1.341,1.745-1.768c1.331-0.777,3.018-0.84,4.346-0.228 c0.517,0.238,0.988,0.552,1.402,0.933c0.879-0.192,1.71-0.515,2.472-0.957l0.937-0.543l-0.333,1.03 c-0.187,0.571-0.46,1.084-0.82,1.533c0.282-0.093,0.566-0.2,0.848-0.323l1.324-0.573l-0.818,1.189 c-0.591,0.859-1.303,1.616-2.119,2.254c0.008,0.104,0.012,0.224,0.012,0.362c0,2.071-0.51,4.098-1.516,6.021 c-1.032,2.037-2.505,3.686-4.377,4.894C40.111,45.559,37.735,46.245,35.092,46.245z M29.986,44.298 c1.583,0.743,3.294,1.117,5.106,1.117c2.478,0,4.7-0.639,6.607-1.9c1.75-1.132,3.126-2.672,4.094-4.581 c0.945-1.809,1.423-3.705,1.423-5.642c0-0.294-0.021-0.408-0.03-0.444l-0.066-0.269l0.222-0.165c0.444-0.33,0.857-0.697,1.234-1.1 c-0.408,0.112-0.818,0.195-1.226,0.25l-1.925,0.256l1.652-1.02c0.523-0.323,0.938-0.712,1.254-1.177 c-0.588,0.244-1.202,0.429-1.837,0.553l-0.217,0.042l-0.156-0.156c-0.384-0.383-0.829-0.693-1.327-0.923 c-1.083-0.5-2.481-0.449-3.58,0.19c-0.604,0.353-1.089,0.845-1.443,1.463c-0.353,0.618-0.532,1.29-0.532,1.996 c0,0.311,0.026,0.627,0.078,0.938l0.084,0.506l-0.513-0.023c-1.841-0.087-3.599-0.554-5.223-1.388 c-1.433-0.736-2.686-1.708-3.731-2.894c-0.198,0.47-0.299,0.957-0.299,1.455c0,0.693,0.165,1.337,0.492,1.914 c0.332,0.586,0.771,1.078,1.306,1.46l1.129,0.808l-1.387-0.056c-0.518-0.021-1.019-0.127-1.497-0.316 c0.103,0.696,0.389,1.323,0.868,1.902c0.616,0.744,1.364,1.206,2.287,1.411l1.856,0.412l-1.859,0.397 c-0.474,0.102-0.945,0.143-1.426,0.134c0.267,0.532,0.648,0.986,1.153,1.377c0.672,0.521,1.432,0.772,2.325,0.772h1.211 l-0.957,0.743C33.608,43.528,31.877,44.185,29.986,44.298z"></path> </g></g></svg>