<svg xmlns="http://www.w3.org/2000/svg" xmlns:xlink="http://www.w3.org/1999/xlink" id="Element_11" x="0px" y="0px" width="80px" height="80px" viewBox="0 0 80 80" xml:space="preserve"><g> <path d="M16.5,37.989v-1.905h4.276v16.271h-2.093V37.989H16.5z"></path> <path d="M28.599,46.848c1.092-0.994,2.013-2.031,2.764-3.109c0.75-1.079,1.125-2.13,1.125-3.156c0-0.948-0.243-1.71-0.728-2.283 c-0.485-0.574-1.25-0.861-2.296-0.861c-1.032,0-1.832,0.326-2.399,0.976c-0.569,0.65-0.875,1.52-0.922,2.604h-2.001 c0.06-1.712,0.576-3.036,1.546-3.97c0.971-0.933,2.221-1.399,3.753-1.399c1.561,0,2.801,0.432,3.719,1.297 c0.917,0.863,1.375,2.047,1.375,3.546c0,1.223-0.376,2.433-1.126,3.625c-0.75,1.194-1.603,2.237-2.558,3.133 c-0.956,0.896-2.177,1.955-3.663,3.181h7.824v1.743h-10.94v-1.492C25.998,49.119,27.507,47.842,28.599,46.848z"></path> <path d="M38.97,36.635c0.97-0.796,2.229-1.192,3.776-1.192c1.029,0,1.92,0.186,2.672,0.562c0.75,0.374,1.318,0.883,1.705,1.525 c0.387,0.644,0.58,1.369,0.58,2.181c0,0.949-0.27,1.767-0.809,2.456c-0.537,0.688-1.238,1.132-2.103,1.331v0.114 c0.984,0.245,1.767,0.728,2.343,1.446c0.576,0.72,0.865,1.66,0.865,2.823c0,0.871-0.199,1.656-0.594,2.353 c-0.393,0.697-0.984,1.244-1.772,1.643c-0.788,0.396-1.737,0.595-2.843,0.595c-1.607,0-2.927-0.427-3.958-1.274 c-1.031-0.849-1.607-2.054-1.729-3.614h2.001c0.107,0.918,0.478,1.668,1.115,2.25c0.637,0.581,1.486,0.871,2.547,0.871 s1.869-0.279,2.422-0.838c0.553-0.558,0.83-1.28,0.83-2.168c0-1.148-0.379-1.974-1.137-2.479c-0.758-0.504-1.902-0.757-3.435-0.757 h-0.522v-1.745h0.547c1.393-0.015,2.447-0.249,3.16-0.699c0.713-0.451,1.068-1.15,1.068-2.1c0-0.811-0.262-1.461-0.783-1.95 c-0.523-0.49-1.271-0.735-2.241-0.735c-0.94,0-1.698,0.245-2.275,0.735c-0.576,0.489-0.917,1.146-1.022,1.973h-2.025 C37.46,38.532,37.999,37.43,38.97,36.635z"></path> <path d="M61.805,33.274l-6.137-6.703l-5.241,6.64l-1.805-1.451l6.917-8.762l7.961,8.697L61.805,33.274z"></path> <path d="M56.758,56.998h-2.309V25.95h2.309V56.998z"></path></g></svg>