<svg xmlns="http://www.w3.org/2000/svg" xmlns:xlink="http://www.w3.org/1999/xlink" id="Element_29" x="0px" y="0px" width="80px" height="80px" viewBox="0 0 80 80" xml:space="preserve"><g> <path d="M18.387,18.974h0.99h19.228h0.991v1.021v4.087v1.022h-0.991V38.66v1.021h-0.99H20.368h-0.991V38.66V25.104h-0.99v-1.022 v-4.087V18.974z M20.368,21.018v2.043h17.246v-2.043H20.368z M21.359,25.104v12.534h15.264V25.104H21.359z"></path> <path d="M26.752,26.879h0.062c0.041,0,0.083,0,0.124,0h4.231c0.288,0,0.526,0.096,0.712,0.288c0.186,0.191,0.278,0.437,0.278,0.733 c0,0.299-0.093,0.543-0.278,0.734s-0.424,0.288-0.712,0.288h-4.231c-0.041,0-0.083,0-0.124,0c-0.247,0-0.475-0.097-0.681-0.288 c-0.207-0.191-0.311-0.436-0.311-0.734c0-0.256,0.094-0.479,0.279-0.67C26.287,27.038,26.504,26.921,26.752,26.879z"></path> <path d="M42.166,18.974h0.991h19.228h0.99v1.021v4.087v1.022h-0.99V38.66v1.021h-0.991H44.148h-0.991V38.66V25.104h-0.991v-1.022 v-4.087V18.974z M44.148,21.018v2.043h17.245v-2.043H44.148z M45.139,25.104v12.534h15.265V25.104H45.139z"></path> <path d="M50.531,26.879h0.063c0.04,0,0.082,0,0.124,0h4.23c0.288,0,0.526,0.096,0.712,0.288c0.187,0.191,0.279,0.437,0.279,0.733 c0,0.299-0.093,0.543-0.279,0.734c-0.186,0.191-0.424,0.288-0.712,0.288h-4.23c-0.042,0-0.084,0-0.124,0 c-0.248,0-0.476-0.097-0.682-0.288c-0.207-0.191-0.31-0.436-0.31-0.734c0-0.256,0.093-0.479,0.278-0.67 C50.067,27.038,50.284,26.921,50.531,26.879z"></path> <path d="M18.387,42.251h0.99h19.228h0.991v1.021v4.087v1.022h-0.991v13.556v1.022h-0.99H20.368h-0.991v-1.022V48.381h-0.99v-1.022 v-4.087V42.251z M20.368,44.293v2.045h17.246v-2.045H20.368z M21.359,48.381v12.534h15.264V48.381H21.359z"></path> <path d="M26.752,50.156h0.062c0.041,0,0.083,0,0.124,0h4.231c0.288,0,0.526,0.096,0.712,0.287s0.278,0.437,0.278,0.734 s-0.093,0.543-0.278,0.734s-0.424,0.287-0.712,0.287h-4.231c-0.041,0-0.083,0-0.124,0c-0.247,0-0.475-0.096-0.681-0.287 c-0.207-0.191-0.311-0.437-0.311-0.734c0-0.256,0.094-0.479,0.279-0.671C26.287,50.316,26.504,50.198,26.752,50.156z"></path> <path d="M42.166,42.251h0.991h19.228h0.99v1.021v4.087v1.022h-0.99v13.556v1.022h-0.991H44.148h-0.991v-1.022V48.381h-0.991v-1.022 v-4.087V42.251z M44.148,44.293v2.045h17.245v-2.045H44.148z M45.139,48.381v12.534h15.265V48.381H45.139z"></path> <path d="M50.531,50.156h0.063c0.04,0,0.082,0,0.124,0h4.23c0.288,0,0.526,0.096,0.712,0.287c0.187,0.191,0.279,0.437,0.279,0.734 s-0.093,0.543-0.279,0.734c-0.186,0.191-0.424,0.287-0.712,0.287h-4.23c-0.042,0-0.084,0-0.124,0c-0.248,0-0.476-0.096-0.682-0.287 c-0.207-0.191-0.31-0.437-0.31-0.734c0-0.256,0.093-0.479,0.278-0.671C50.067,50.316,50.284,50.198,50.531,50.156z"></path></g></svg>