<svg xmlns="http://www.w3.org/2000/svg" xmlns:xlink="http://www.w3.org/1999/xlink" id="Element_12" x="0px" y="0px" width="70px" height="70px" viewBox="0 0 70 70" xml:space="preserve"><g> <path d="M33.238,15.144c0-1.134-0.923-2.056-2.057-2.056H14.556c-1.133,0-2.056,0.922-2.056,2.056v21.244 c0,1.134,0.923,2.057,2.056,2.057h16.626c1.134,0,2.057-0.923,2.057-2.057V15.144z M30.973,36.179H14.765V15.353h16.208V36.179z"></path> <path d="M33.238,42.935c0-1.134-0.923-2.057-2.057-2.057H14.556c-1.133,0-2.056,0.923-2.056,2.057v12.008 c0,1.134,0.923,2.056,2.056,2.056h16.626c1.134,0,2.057-0.922,2.057-2.056V42.935z M30.973,54.732H14.765V43.144h16.208V54.732z"></path> <path d="M56.5,15.056c0-1.135-0.924-2.058-2.057-2.058H37.817c-1.134,0-2.057,0.923-2.057,2.058v12.007 c0,1.135,0.923,2.057,2.057,2.057h16.626c1.133,0,2.057-0.922,2.057-2.057V15.056z M54.233,26.854H38.025v-11.59h16.208V26.854z"></path> <path d="M56.5,33.698c0-1.134-0.924-2.057-2.057-2.057H37.817c-1.134,0-2.057,0.923-2.057,2.057v21.244 c0,1.134,0.923,2.056,2.057,2.056h16.626c1.133,0,2.057-0.922,2.057-2.056V33.698z M54.233,54.732H38.025V33.907h16.208V54.732z"></path></g></svg>