<svg xmlns="http://www.w3.org/2000/svg" xmlns:xlink="http://www.w3.org/1999/xlink" id="Element_20" x="0px" y="0px" width="80px" height="80px" viewBox="0 0 80 80" xml:space="preserve"><g> <path fill="#030303" stroke="#030303" stroke-width="0.5" stroke-miterlimit="10" d="M50.272,28.02 c2.645,0,4.795-2.152,4.795-4.796c0-2.643-2.15-4.795-4.795-4.795c-2.644,0-4.795,2.152-4.795,4.795 C45.478,25.868,47.629,28.02,50.272,28.02z M50.272,20.859c1.304,0,2.364,1.06,2.364,2.364c0,1.304-1.061,2.366-2.364,2.366 c-1.305,0-2.365-1.062-2.365-2.366C47.907,21.918,48.968,20.859,50.272,20.859z"></path> <path fill="#030303" stroke="#030303" stroke-width="0.5" stroke-miterlimit="10" d="M67.489,48.877h-2.307L54.438,38.352 c-0.471-0.461-1.223-0.463-1.696-0.004l-4.393,4.267L35.693,29.858c-0.456-0.46-1.269-0.463-1.726-0.003L15.089,48.877H12.81 c-0.67,0-1.215,0.553-1.215,1.225c0,0.67,0.545,1.225,1.215,1.225h2.732H54.12h10.634h2.735c0.671,0,1.215-0.555,1.215-1.225 C68.704,49.43,68.16,48.877,67.489,48.877z M53.586,40.886l8.189,7.991h-7.139l-4.507-4.648L53.586,40.886z M34.831,32.375 l16.372,16.501H18.459L34.831,32.375z"></path></g><path fill="#030303" stroke="#030303" stroke-width="0.5" stroke-miterlimit="10" d="M71.29,7.464H8.965 c-2.678,0-4.857,2.124-4.857,4.803v42.144c0,2.68,2.18,4.804,4.857,4.804H71.29c2.681,0,4.901-2.124,4.901-4.804V12.268 C76.191,9.588,73.971,7.464,71.29,7.464z M73.742,54.411c0,1.339-1.11,2.491-2.452,2.491H8.965c-1.337,0-2.408-1.152-2.408-2.491 V12.268c0-1.339,1.071-2.491,2.408-2.491H71.29c1.342,0,2.452,1.151,2.452,2.491V54.411z"></path><g> <path fill="#030303" stroke="#030303" stroke-width="0.5" stroke-miterlimit="10" d="M64.387,64.242H15.912 c-0.689,0-1.25,0.561-1.25,1.25s0.561,1.25,1.25,1.25h48.475c0.689,0,1.25-0.561,1.25-1.25S65.076,64.242,64.387,64.242z"></path> <path fill="#030303" stroke="#030303" stroke-width="0.5" stroke-miterlimit="10" d="M58.925,71.77H21.374 c-0.689,0-1.25,0.561-1.25,1.25s0.561,1.25,1.25,1.25h37.551c0.689,0,1.25-0.561,1.25-1.25S59.614,71.77,58.925,71.77z"></path></g></svg>