<svg xmlns="http://www.w3.org/2000/svg" xmlns:xlink="http://www.w3.org/1999/xlink" id="Element_28" x="0px" y="0px" width="80px" height="80px" viewBox="0 0 80 80" xml:space="preserve"><path fill="#1A1818" stroke="#000000" stroke-width="0.5" stroke-miterlimit="10" d="M72.693,45.686V15.434 c0-2.648-2.199-4.803-4.901-4.803H5.466c-2.678,0-4.857,2.155-4.857,4.803v42.144c0,2.648,2.179,4.804,4.857,4.804h52.427 c-0.136-0.77-0.21-1.545-0.219-2.313H5.466c-1.305,0-2.408-1.141-2.408-2.491V15.434c0-1.35,1.103-2.491,2.408-2.491h62.326 c1.329,0,2.452,1.141,2.452,2.491v30.332C71.17,45.649,71.926,45.629,72.693,45.686z"></path><path fill="#030303" d="M78.684,65.363l-0.397-0.298l0.476-0.142c0.453-0.136,0.77-0.557,0.77-1.023 c0-0.508-0.366-0.948-0.871-1.049l-14.671-0.027l-0.262-1.249h13.1c0.625,0,1.788,0,2.159-1.684l2.079-9.446 c0.154-0.537,0.063-1.071-0.247-1.481c-0.334-0.438-0.888-0.699-1.48-0.699H60.955l-0.111-0.534c-0.174-1.11-0.96-1.767-2.105-1.767 l-4.458-0.002c-0.601,0-1.09,0.48-1.09,1.071s0.489,1.071,1.09,1.071l4.426,0.005l0.042,0.199l3.135,15.046 c0.16,0.631,0.468,1.085,0.912,1.34l0.389,0.223l-0.394,0.214c-1.007,0.547-1.633,1.586-1.633,2.711c0,1.721,1.421,3.12,3.167,3.12 s3.166-1.399,3.166-3.12c0-0.949-0.432-1.834-1.184-2.429l-0.564-0.446h9.603l-0.566,0.446c-0.753,0.594-1.185,1.479-1.185,2.429 c0,1.721,1.423,3.12,3.171,3.12c1.745,0,3.165-1.399,3.165-3.12C79.93,66.86,79.476,65.957,78.684,65.363z M61.403,50.405h17.454 l-1.997,9.029H63.282L61.403,50.405z M64.325,68.819c-0.549,0-0.995-0.438-0.995-0.978c0-0.54,0.446-0.979,0.995-0.979 c0.548,0,0.993,0.438,0.993,0.979C65.318,68.381,64.873,68.819,64.325,68.819z M76.765,68.819c-0.549,0-0.995-0.438-0.995-0.978 c0-0.54,0.446-0.979,0.995-0.979c0.547,0,0.992,0.438,0.992,0.979C77.757,68.381,77.312,68.819,76.765,68.819z"></path><g> <path d="M34.364,29.794c0.884,0,1.603-0.718,1.603-1.601c0-0.883-0.719-1.602-1.603-1.602c-0.882,0-1.6,0.718-1.6,1.602 C32.764,29.076,33.482,29.794,34.364,29.794z M34.364,27.59c0.333,0,0.603,0.271,0.603,0.603s-0.271,0.603-0.603,0.603 c-0.332,0-0.602-0.271-0.602-0.603S34.032,27.59,34.364,27.59z"></path> <path d="M39.666,35.965h-0.66l-3.271-3.205c-0.186-0.183-0.509-0.184-0.697-0.002l-1.264,1.229l-3.809-3.84 c-0.182-0.182-0.528-0.183-0.709,0l-5.775,5.819h-0.649c-0.275,0-0.499,0.225-0.499,0.502s0.224,0.502,0.499,0.502h16.833 c0.275,0,0.499-0.225,0.499-0.502S39.94,35.965,39.666,35.965z M34.351,35.965h-9.48l4.74-4.778L34.351,35.965z M37.599,35.965 h-1.837l-1.264-1.303l0.886-0.857L37.599,35.965z"></path> <path d="M39.798,21.855H23.161c-2.068,0-3.75,1.682-3.75,3.75v12.722c0,2.068,1.682,3.75,3.75,3.75h16.638 c2.068,0,3.75-1.682,3.75-3.75V25.605C43.548,23.537,41.866,21.855,39.798,21.855z M42.048,38.327c0,1.241-1.009,2.25-2.25,2.25 H23.161c-1.241,0-2.25-1.009-2.25-2.25V25.605c0-1.241,1.009-2.25,2.25-2.25h16.638c1.241,0,2.25,1.009,2.25,2.25V38.327z"></path> <path d="M24.966,42.899h-3.805c-0.965,0-1.75,0.785-1.75,1.75v3.224c0,0.965,0.785,1.75,1.75,1.75h3.805 c0.965,0,1.75-0.785,1.75-1.75v-3.224C26.716,43.685,25.931,42.899,24.966,42.899z M25.216,47.873c0,0.136-0.114,0.25-0.25,0.25 h-3.805c-0.136,0-0.25-0.114-0.25-0.25v-3.224c0-0.136,0.114-0.25,0.25-0.25h3.805c0.136,0,0.25,0.114,0.25,0.25V47.873z"></path> <path d="M33.382,42.899h-3.805c-0.965,0-1.75,0.785-1.75,1.75v3.224c0,0.965,0.785,1.75,1.75,1.75h3.805 c0.965,0,1.75-0.785,1.75-1.75v-3.224C35.132,43.685,34.347,42.899,33.382,42.899z M33.632,47.873c0,0.136-0.114,0.25-0.25,0.25 h-3.805c-0.136,0-0.25-0.114-0.25-0.25v-3.224c0-0.136,0.114-0.25,0.25-0.25h3.805c0.136,0,0.25,0.114,0.25,0.25V47.873z"></path> <path d="M41.799,42.899h-3.805c-0.965,0-1.75,0.785-1.75,1.75v3.224c0,0.965,0.785,1.75,1.75,1.75h3.805 c0.964,0,1.749-0.785,1.749-1.75v-3.224C43.548,43.685,42.763,42.899,41.799,42.899z M42.048,47.873c0,0.136-0.114,0.25-0.249,0.25 h-3.805c-0.136,0-0.25-0.114-0.25-0.25v-3.224c0-0.136,0.114-0.25,0.25-0.25h3.805c0.135,0,0.249,0.114,0.249,0.25V47.873z"></path> <rect x="44.539" y="24.397" width="7.684" height="1.5"></rect> <rect x="44.539" y="31.362" width="9.352" height="1.5"></rect> <rect x="44.539" y="38.328" width="9.352" height="1.5"></rect> <rect x="44.539" y="45.294" width="6.014" height="1.5"></rect></g></svg>