<svg xmlns="http://www.w3.org/2000/svg" xmlns:xlink="http://www.w3.org/1999/xlink" x="0px" y="0px" width="70px" height="70px" viewBox="0 0 70 70" xml:space="preserve"><g> <g> <path stroke="" stroke-width="0.5" stroke-miterlimit="10" d="M24.17,34.167c0.469-0.963,0.708-2.062,0.708-3.264 c0-1.595-0.348-2.911-1.034-3.909c-0.684-0.991-1.627-1.665-2.806-2.006l-0.081-0.023v-0.354l0.083-0.021 c1.028-0.274,1.873-0.892,2.512-1.839c0.639-0.951,0.964-2.092,0.964-3.393c0-1.114-0.234-2.128-0.695-3.015 c-0.461-0.888-1.148-1.599-2.041-2.112c-0.895-0.518-1.976-0.78-3.216-0.78c-1.855,0-3.383,0.56-4.543,1.664 c-1.132,1.068-1.78,2.562-1.927,4.443h2.269c0.145-1.145,0.574-2.072,1.273-2.757c0.715-0.709,1.671-1.068,2.844-1.068 c1.211,0,2.157,0.36,2.811,1.071c0.657,0.708,0.99,1.667,0.99,2.851c0,1.377-0.456,2.409-1.356,3.069 c-0.881,0.647-2.2,0.986-3.919,1.01h-0.559v2.217h0.533c1.885,0,3.317,0.367,4.257,1.089c0.951,0.737,1.433,1.95,1.433,3.605 c0,1.277-0.352,2.339-1.044,3.153c-0.692,0.807-1.712,1.216-3.032,1.216c-1.321,0-2.392-0.426-3.184-1.266 c-0.773-0.82-1.239-1.877-1.384-3.144h-2.235c0.168,2.102,0.862,3.746,2.063,4.887c1.234,1.176,2.838,1.772,4.766,1.772 c1.328,0,2.48-0.276,3.426-0.824C22.981,35.89,23.696,35.125,24.17,34.167z"></path> <path stroke="" stroke-width="0.5" stroke-miterlimit="10" d="M39.944,33.41c0.482-1.149,0.728-2.46,0.728-3.898 c0-2.394-0.565-4.297-1.683-5.659c-1.111-1.354-2.622-2.04-4.49-2.04c-1.198,0-2.299,0.318-3.272,0.946 c-0.964,0.619-1.663,1.486-2.077,2.58l-0.2,0.526l-0.002-0.575c-0.017-3.453,0.38-5.865,1.213-7.375 c0.832-1.513,2.103-2.281,3.779-2.281c2.147,0,3.457,1.211,3.895,3.6h2.127c-0.204-1.663-0.803-3.05-1.784-4.125 c-1.02-1.122-2.436-1.69-4.208-1.69c-4.649,0-7.007,3.962-7.007,11.775c0,2.541,0.214,4.71,0.635,6.453 c0.421,1.724,1.167,3.088,2.219,4.06c1.053,0.973,2.534,1.466,4.4,1.466c1.381,0,2.575-0.345,3.549-1.024 C38.733,35.466,39.467,34.545,39.944,33.41z M37.254,33.5c-0.781,0.961-1.849,1.449-3.172,1.449c-1.542,0-2.746-0.533-3.575-1.582 c-0.833-1.041-1.256-2.416-1.256-4.087c0-1.113,0.228-2.078,0.676-2.868c0.437-0.78,1.025-1.372,1.748-1.762 c0.736-0.395,1.486-0.586,2.294-0.586c1.452,0,2.571,0.5,3.327,1.487c0.758,0.983,1.141,2.348,1.141,4.056 C38.436,31.232,38.038,32.542,37.254,33.5z"></path> <path stroke="" stroke-width="0.5" stroke-miterlimit="10" d="M56.209,25.451c0-3.631-0.519-6.511-1.538-8.559 c-1.011-2.027-2.804-3.056-5.328-3.056c-2.539,0-4.34,1.029-5.354,3.056c-1.024,2.051-1.543,4.931-1.543,8.559 c0,3.638,0.519,6.525,1.543,8.583c1.014,2.036,2.814,3.067,5.354,3.067c2.525,0,4.317-1.031,5.328-3.067 C55.69,31.978,56.209,29.091,56.209,25.451z M53.6,30.245c-0.217,1.316-0.665,2.391-1.334,3.195 c-0.675,0.81-1.658,1.221-2.923,1.221c-1.281,0-2.272-0.411-2.949-1.221c-0.666-0.797-1.114-1.873-1.336-3.195 c-0.213-1.296-0.32-2.909-0.32-4.793c0-1.855,0.107-3.453,0.32-4.752c0.222-1.321,0.67-2.394,1.336-3.192 c0.677-0.81,1.668-1.22,2.949-1.22c1.265,0,2.248,0.41,2.923,1.22c0.669,0.805,1.117,1.878,1.334,3.192 c0.215,1.289,0.323,2.888,0.323,4.752C53.923,27.346,53.814,28.958,53.6,30.245z"></path> </g> <path stroke="" stroke-width="0.5" stroke-miterlimit="10" d="M59.995,7.958c-2.089,0-3.786,1.676-3.786,3.735 c0,2.059,1.698,3.733,3.786,3.733c2.087,0,3.784-1.675,3.784-3.733C63.779,9.633,62.082,7.958,59.995,7.958z M59.995,13.61 c-1.071,0-1.944-0.86-1.944-1.917c0-1.059,0.873-1.92,1.944-1.92c1.073,0,1.944,0.861,1.944,1.92 C61.939,12.75,61.068,13.61,59.995,13.61z"></path> <g> <path stroke="" stroke-width="0.25" stroke-miterlimit="10" d="M50.898,53.924C62.529,51.15,69.75,45.537,69.75,39.258 c0-1.794-0.568-3.54-1.688-5.193l-2.44,1.729c0.758,1.134,1.142,2.299,1.142,3.465c0,4.75-6.49,9.356-16.547,11.753L50.898,53.924 z"></path> <path stroke="" stroke-width="0.25" stroke-miterlimit="10" d="M31.652,47.232l8.806,5.268l-0.802,0.053 c-1.592,0.102-3.151,0.152-4.64,0.152c-18.99,0-31.747-6.953-31.747-13.447c0-1.098,0.345-2.201,1.025-3.285l-2.483-1.665 c-1.015,1.581-1.53,3.245-1.53,4.949c0,9.216,15.257,16.435,34.735,16.435c1.53,0,3.14-0.053,4.787-0.156l0.729-0.045 l-9.127,8.039l1.977,2.242l14.19-12.494l-14.384-8.606L31.652,47.232z"></path> </g></g></svg>