<svg xmlns="http://www.w3.org/2000/svg" xmlns:xlink="http://www.w3.org/1999/xlink" id="Element_13" x="0px" y="0px" width="80px" height="80px" viewBox="0 0 80 80" xml:space="preserve"><path fill="#030303" d="M71,21.269c0-8.944-12.771-15.436-30.367-15.436C22.895,5.833,9,12.613,9,21.269v38.525 c0,8.646,13.803,15.42,31.424,15.42C57.855,75.214,71,68.63,71,59.899V21.269z M40.314,9.809c16.12,0,26.948,5.923,26.948,11.455 c0,5.532-10.828,11.454-26.948,11.454c-16.44,0-27.484-5.922-27.484-11.454C12.83,15.731,23.874,9.809,40.314,9.809z M68,59.896 c0,5.541-10.941,11.474-27.229,11.474C24.405,71.37,13,65.27,13,59.794v-5.553l0.835,0.756c4.958,4.487,15.531,7.387,26.936,7.387 c10.764,0,20.151-2.553,26.432-7.188L68,54.608V59.896z M68.001,47.57C68,53.109,57.059,59.04,40.771,59.04 c-16.366,0-27.771-6.1-27.771-11.574v-5.648l0.835,0.756c4.957,4.488,15.529,7.389,26.935,7.389c10.769,0,20.156-2.553,26.433-7.188 l0.797-0.589V47.57z M68.001,35.147C68,40.687,57.059,46.618,40.771,46.618c-16.366,0-27.771-6.1-27.771-11.574v-6.94l0.834,0.752 c4.955,4.464,15.527,7.348,26.936,7.348c10.771,0,20.159-2.555,26.433-7.195l0.797-0.59V35.147z"></path></svg>