<svg xmlns="http://www.w3.org/2000/svg" xmlns:xlink="http://www.w3.org/1999/xlink" id="Element_36" x="0px" y="0px" width="80px" height="80px" viewBox="0 0 80 80" xml:space="preserve"><g> <path fill="#030303" d="M47.263,36.696c1.861,0,3.374-1.515,3.374-3.375c0-1.86-1.513-3.375-3.374-3.375 c-1.86,0-3.374,1.515-3.374,3.375C43.889,35.181,45.402,36.696,47.263,36.696z M47.263,31.657c0.917,0,1.664,0.746,1.664,1.664 c0,0.917-0.747,1.665-1.664,1.665s-1.664-0.747-1.664-1.665C45.599,32.402,46.346,31.657,47.263,31.657z"></path> <path fill="#030303" d="M59.379,51.373h-1.623l-7.562-7.406c-0.33-0.325-0.86-0.326-1.193-0.003l-3.091,3.003l-8.906-8.978 c-0.321-0.323-0.893-0.325-1.214-0.001L22.504,51.373H20.9c-0.472,0-0.855,0.39-0.855,0.862c0,0.471,0.383,0.862,0.855,0.862h1.923 h27.148h7.483h1.925c0.473,0,0.854-0.392,0.854-0.862C60.233,51.763,59.852,51.373,59.379,51.373z M49.595,45.751l5.764,5.622 h-5.024l-3.171-3.271L49.595,45.751z M36.396,39.761l11.521,11.612H24.875L36.396,39.761z"></path></g><path fill="#030303" d="M60.518,19.837H19.725c-2.17,0-3.937,1.722-3.937,3.893v32.541c0,2.172,1.767,3.893,3.937,3.893h40.792 c2.173,0,3.973-1.721,3.973-3.893V23.73C64.49,21.559,62.69,19.837,60.518,19.837z M62.505,56.271c0,1.084-0.899,2.019-1.987,2.019 H19.725c-1.083,0-1.952-0.935-1.952-2.019V23.73c0-1.085,0.868-2.019,1.952-2.019h40.792c1.088,0,1.987,0.933,1.987,2.019V56.271z"></path><path fill="#030303" d="M8.187,22.812H2.731v1.633h5.455c0.947,0,1.732,0.813,1.732,1.76v28.142c0,0.945-0.785,1.759-1.732,1.759 H2.731v1.634h5.455c1.894,0,3.461-1.5,3.461-3.393V26.205C11.648,24.312,10.08,22.812,8.187,22.812z"></path><path fill="#030303" d="M72.006,22.812h5.454v1.633h-5.454c-0.948,0-1.732,0.813-1.732,1.76v28.142c0,0.945,0.784,1.759,1.732,1.759 h5.454v1.634h-5.454c-1.894,0-3.463-1.5-3.463-3.393V26.205C68.543,24.312,70.112,22.812,72.006,22.812z"></path></svg>