<svg xmlns="http://www.w3.org/2000/svg" xmlns:xlink="http://www.w3.org/1999/xlink" id="Element_38" x="0px" y="0px" width="80px" height="80px" viewBox="0 0 80 80" xml:space="preserve"><polygon stroke="#000000" stroke-width="0.1" stroke-miterlimit="10" points="21.215,45.612 13.114,45.612 13.114,17.026 50.79,17.026 50.79,19.813 52.717,19.813 52.717,15.1 11.188,15.1 11.188,47.538 21.215,47.538 "></polygon><path stroke="#000000" stroke-width="0.1" stroke-miterlimit="10" d="M37.315,51.803H29.76c-2.834,0-5.141-2.306-5.141-5.14V28.356 c0-2.833,2.306-5.139,5.141-5.139h25.397c2.833,0,5.139,2.306,5.139,5.139v1.991c0.678,0.425,1.322,0.894,1.927,1.412v-3.403 c0-3.896-3.169-7.065-7.065-7.065H29.76c-3.897,0-7.067,3.169-7.067,7.065v18.307c0,3.896,3.17,7.066,7.067,7.066h8.79 C38.099,53.115,37.678,52.479,37.315,51.803z"></path><g> <path stroke="#000000" stroke-width="0.1" stroke-miterlimit="10" d="M51.653,59.1c-8.265,0-14.988-6.723-14.988-14.987 c0-8.264,6.724-14.988,14.988-14.988c8.263,0,14.986,6.724,14.986,14.988C66.64,52.377,59.916,59.1,51.653,59.1z M51.653,31.05 c-7.203,0-13.062,5.86-13.062,13.062c0,7.203,5.859,13.062,13.062,13.062c7.2,0,13.06-5.858,13.06-13.062 C64.713,36.91,58.854,31.05,51.653,31.05z"></path></g></svg>