<svg xmlns="http://www.w3.org/2000/svg" xmlns:xlink="http://www.w3.org/1999/xlink" id="Element_7" x="0px" y="0px" width="80px" height="80px" viewBox="0 0 80 80" xml:space="preserve"><path fill="#030303" d="M67.257,66.433c-4.813,0-8.73-3.917-8.73-8.731c0-0.542,0.055-1.1,0.163-1.656 c-0.107-1.773-1.524-3.127-3.227-3.127c-1.525,0-2.862,1.085-3.179,2.578c0.173,0.854,0.256,1.549,0.256,2.205 c0,4.814-3.916,8.731-8.729,8.731s-8.729-3.917-8.729-8.731c0-4.813,3.916-8.729,8.729-8.729c2.841,0,5.515,1.398,7.153,3.742 l0.121,0.171c0.032,0.047,0.085,0.075,0.141,0.078c0.003,0,0.007,0.001,0.009,0.001c0.053,0,0.104-0.024,0.14-0.064l0.137-0.158 c0.999-1.152,2.44-1.813,3.952-1.813c1.558,0,3.025,0.689,4.026,1.891l0.14,0.167c0.034,0.042,0.086,0.066,0.141,0.066 c0.002,0,0.006-0.001,0.008-0.001c0.058-0.002,0.109-0.031,0.143-0.079l0.122-0.179c1.634-2.394,4.332-3.822,7.215-3.822 c4.813,0,8.729,3.916,8.729,8.729C75.985,62.516,72.069,66.433,67.257,66.433z M43.811,50.961c-3.718,0-6.742,3.023-6.742,6.74 c0,3.719,3.024,6.743,6.742,6.743c3.717,0,6.742-3.024,6.742-6.743c0-0.525-0.069-1.068-0.204-1.615l-0.031-0.125 c-0.012-0.047-0.04-0.084-0.078-0.108l0.003-0.055c0.001-0.008-0.004-0.098-0.005-0.106C49.33,52.844,46.75,50.961,43.811,50.961z M67.257,50.961c-3.718,0-6.742,3.023-6.742,6.74c0,3.719,3.023,6.743,6.741,6.743c3.717,0,6.741-3.024,6.741-6.743 C73.997,53.984,70.974,50.961,67.257,50.961z"></path><rect x="16.104" y="37.099" fill="#030303" width="46.518" height="1.988"></rect><rect x="31.578" y="44.512" fill="#030303" width="31.044" height="1.988"></rect><rect x="31.578" y="51.295" fill="#030303" width="2.867" height="1.988"></rect><rect x="16.104" y="58.08" fill="#030303" width="15.677" height="1.988"></rect><path fill="#030303" d="M24.721,33.907l-5.193-6.828c-0.034-0.046-0.089-0.073-0.146-0.073c-0.02,0-0.039,0.004-0.059,0.01 c-0.074,0.025-0.125,0.095-0.125,0.173v6.717h-1.647v-9.805h1.674l5.341,7.007c0.035,0.046,0.089,0.072,0.146,0.072 c0.021,0,0.04-0.003,0.06-0.009c0.074-0.025,0.124-0.095,0.124-0.174v-6.896h1.649v9.805H24.721z"></path><path fill="#030303" d="M29.823,33.907v-9.805h6.874v1.395h-5.044c-0.101,0-0.184,0.083-0.184,0.184v2.491 c0,0.101,0.083,0.183,0.184,0.183h4.518v1.303h-4.518c-0.101,0-0.184,0.083-0.184,0.184v2.505c0,0.101,0.083,0.183,0.184,0.183h5.21 v1.378H29.823z"></path><path fill="#030303" d="M48.201,33.907l-2.377-7.554c-0.023-0.077-0.096-0.129-0.174-0.129l0,0c-0.081,0-0.151,0.052-0.175,0.129 l-2.364,7.554H41.87l-3.424-9.805h1.805l2.154,6.277c0.025,0.075,0.095,0.125,0.174,0.125c0,0,0.001,0,0.002,0 c0.08-0.001,0.149-0.054,0.173-0.129l1.937-6.272h1.937l1.919,6.272c0.022,0.076,0.093,0.128,0.171,0.13c0.002,0,0.003,0,0.004,0 c0.078,0,0.148-0.05,0.174-0.124l2.17-6.278h1.803l-3.421,9.805H48.201z"></path><path fill="#030303" d="M58.267,34.027c-1.464,0-2.813-0.517-4.013-1.538l0.965-1.183c1.092,0.891,2.131,1.343,3.094,1.343 c0.506,0,0.917-0.117,1.223-0.348c0.331-0.251,0.507-0.607,0.507-1.03c0-0.425-0.187-0.782-0.538-1.033 c-0.298-0.212-0.842-0.414-1.664-0.617c-1.166-0.276-2.021-0.634-2.544-1.065c-0.479-0.394-0.724-1.042-0.724-1.925 c0-0.889,0.307-1.552,0.937-2.029c0.65-0.491,1.483-0.74,2.474-0.74c0.661,0,1.332,0.114,1.988,0.34 c0.55,0.189,1.045,0.446,1.477,0.764l-0.802,1.156c-0.88-0.595-1.801-0.897-2.739-0.897c-0.471,0-0.855,0.12-1.144,0.356 c-0.309,0.255-0.465,0.594-0.465,1.005c0,0.423,0.196,0.775,0.569,1.018c0.317,0.207,0.958,0.425,2.015,0.685 c0.936,0.231,1.668,0.577,2.174,1.027c0.472,0.421,0.711,1.056,0.711,1.889c0,0.838-0.306,1.5-0.934,2.024 C60.193,33.759,59.33,34.027,58.267,34.027z"></path><g> <path fill="#030303" d="M9.262,63.521c-1.338,0-2.408-1.151-2.408-2.491V19.886c0-1.339,1.07-2.491,2.408-2.491h57.325 c1.342,0,2.452,1.151,2.452,2.491v25.516h2.449V19.886c0-2.679-2.221-4.803-4.901-4.803H9.262c-2.678,0-4.857,2.124-4.857,4.803 v41.143c0,2.68,2.18,4.804,4.857,4.804h22.87v-2.313H9.262z"></path></g></svg>