<svg xmlns="http://www.w3.org/2000/svg" xmlns:xlink="http://www.w3.org/1999/xlink" id="Element_10" x="0px" y="0px" width="80px" height="80px" viewBox="0 0 80 80" xml:space="preserve"><g> <path d="M39.999,25.754c-10.222,0-18.537,8.155-18.537,18.18c0,10.025,8.315,18.182,18.537,18.182 c10.221,0,18.536-8.156,18.536-18.182C58.535,33.909,50.22,25.754,39.999,25.754z M39.999,60.45 c-9.286,0-16.841-7.408-16.841-16.517c0-9.107,7.555-16.517,16.841-16.517s16.84,7.409,16.84,16.517 C56.839,53.042,49.285,60.45,39.999,60.45z"></path> <path d="M19.962,28.258l1.087,1.066l1.199-1.176l-1.088-1.067c-0.111-0.109-0.195-0.266-0.215-0.397 c-0.014-0.093-0.007-0.197,0.133-0.335l0.906-0.888c0.098-0.097,0.275-0.193,0.45-0.193h0.001c0.159,0,0.317,0.08,0.487,0.247 l1.005,0.985l1.199-1.177l-1.002-0.982c-0.616-0.608-1.257-0.737-1.687-0.738c-0.001,0-0.002,0-0.004,0 c-0.599,0-1.216,0.255-1.65,0.682l-0.906,0.888c-0.49,0.481-0.708,1.104-0.612,1.75C19.338,27.408,19.592,27.896,19.962,28.258z"></path> <path d="M57.147,25.513c0.167-0.165,0.325-0.245,0.484-0.245c0.001,0,0.001,0,0.001,0c0.174,0,0.354,0.097,0.451,0.193l0.904,0.888 c0.317,0.31-0.013,0.665-0.081,0.733l-1.087,1.066l1.199,1.176l1.088-1.067c0.781-0.769,1.076-2.11,0.081-3.085l-0.904-0.889 c-0.437-0.426-1.053-0.681-1.651-0.681c-0.001,0-0.002,0-0.004,0c-0.43,0.001-1.07,0.13-1.684,0.736l-1.005,0.984L56.14,26.5 L57.147,25.513z"></path> <path d="M53.239,44.767l2.033-0.001l-0.001-1.664l-2.033,0.001L53.239,44.767z"></path> <path d="M39.147,56.92l0.002,1.994l1.696-0.002l-0.001-1.993L39.147,56.92z"></path> <path d="M26.757,43.1l-2.033,0.002l0.002,1.664l2.033-0.002L26.757,43.1z"></path> <path d="M28.897,36.805l-1.771-0.982l-0.835,1.449l1.771,0.982L28.897,36.805z"></path> <path d="M31.547,31.428l1.03,1.721l1.462-0.843l-1.029-1.72L31.547,31.428z"></path> <path d="M48.396,31.391l-1.469-0.834l-1.019,1.728l1.468,0.833L48.396,31.391z"></path> <path d="M53.697,37.25l-0.841-1.446l-1.769,0.987l0.84,1.446L53.697,37.25z"></path> <path d="M51.109,51.047l1.773,0.979l0.833-1.449l-1.772-0.98L51.109,51.047z"></path> <path d="M45.974,55.554l1.032,1.72l1.462-0.846l-1.033-1.719L45.974,55.554z"></path> <path d="M31.517,56.422l1.463,0.844l1.031-1.721l-1.463-0.844L31.517,56.422z"></path> <path d="M26.403,50.817l0.862,1.434l1.752-1.014l-0.861-1.434L26.403,50.817z"></path> <path d="M40.843,28.961h-1.696v1.993h1.696V28.961z"></path> <path d="M40.852,43.102h-1.686c-0.441,0-0.859-0.17-1.173-0.472c-0.31-0.307-0.481-0.717-0.481-1.158 c0-0.429,0.173-0.841,0.478-1.145c0.314-0.308,0.733-0.479,1.176-0.479h1.685c0.434,0,0.864,0.176,1.173,0.47 c0.391,0.389,0.474,0.843,0.474,1.153h1.71c0-0.883-0.343-1.711-0.978-2.343c-0.632-0.606-1.496-0.956-2.367-0.958v-1.688h-1.713 v1.688c-0.89,0.005-1.729,0.343-2.375,0.975c-0.629,0.626-0.975,1.456-0.975,2.326c0,0.887,0.348,1.717,0.984,2.345 c0.64,0.622,1.486,0.966,2.383,0.966h1.684c0.432,0,0.864,0.176,1.179,0.479c0.302,0.293,0.468,0.702,0.468,1.152 c0,0.443-0.166,0.851-0.461,1.14c-0.321,0.307-0.752,0.483-1.186,0.483h-1.684c-0.442,0-0.86-0.169-1.171-0.469 c-0.312-0.313-0.483-0.722-0.483-1.154h-1.713c0,0.879,0.349,1.705,0.986,2.338c0.636,0.619,1.475,0.959,2.365,0.963v1.689h1.712 v-1.689c0.872-0.004,1.734-0.351,2.377-0.967c0.624-0.614,0.969-1.444,0.969-2.334c0-0.899-0.347-1.73-0.977-2.349 C42.593,43.454,41.728,43.102,40.852,43.102z"></path> <ellipse fill="none" stroke="#000000" stroke-width="2" stroke-miterlimit="10" cx="39.969" cy="43.788" rx="21.24" ry="20.912"></ellipse> <line fill="none" stroke="#000000" stroke-width="2" stroke-miterlimit="10" x1="39.969" y1="22.876" x2="39.969" y2="17.406"></line></g><path fill="none" stroke="#000000" stroke-width="2" stroke-miterlimit="10" d="M46.003,16.947c0,1.563-1.35,2.841-3,2.841h-6 c-1.65,0-3-1.278-3-2.841s1.35-2.841,3-2.841h6C44.653,14.106,46.003,15.385,46.003,16.947z"></path></svg>