<svg xmlns="http://www.w3.org/2000/svg" xmlns:xlink="http://www.w3.org/1999/xlink" id="Element_33" x="0px" y="0px" width="80px" height="80px" viewBox="0 0 80 80" xml:space="preserve"><g> <path fill="#030303" stroke="#000000" stroke-width="0.25" stroke-miterlimit="10" d="M36.235,29.915 c1.403,0,2.544-1.142,2.544-2.543s-1.141-2.544-2.544-2.544c-1.401,0-2.542,1.142-2.542,2.544S34.833,29.915,36.235,29.915z M36.235,26.118c0.691,0,1.254,0.562,1.254,1.254c0,0.691-0.563,1.254-1.254,1.254s-1.254-0.563-1.254-1.254 C34.981,26.679,35.543,26.118,36.235,26.118z"></path> <path fill="#030303" stroke="#000000" stroke-width="0.25" stroke-miterlimit="10" d="M45.367,40.977h-1.225l-5.698-5.582 c-0.25-0.245-0.648-0.246-0.9-0.002l-2.329,2.264l-6.712-6.766c-0.242-0.244-0.673-0.245-0.915-0.001L17.576,40.977h-1.209 c-0.355,0-0.645,0.293-0.645,0.65c0,0.354,0.289,0.648,0.645,0.648h1.449h20.46h5.64h1.451c0.355,0,0.644-0.294,0.644-0.648 C46.011,41.27,45.723,40.977,45.367,40.977z M37.993,36.739l4.343,4.237H38.55l-2.391-2.465L37.993,36.739z M28.046,32.225 l8.683,8.751H19.363L28.046,32.225z"></path></g><g> <path fill="none" stroke="#000000" stroke-width="2.25" stroke-miterlimit="10" d="M50.765,47c0,1.65-1.35,3-3,3h-33 c-1.65,0-3-1.35-3-3V20.745c0-1.65,1.35-3,3-3h33c1.65,0,3,1.35,3,3V47z"></path></g><g> <path fill="none" stroke="#000000" stroke-width="2.25" stroke-miterlimit="10" d="M21.765,62c0,0.55-0.45,1-1,1h-8 c-0.55,0-1-0.45-1-1v-7c0-0.55,0.45-1,1-1h8c0.55,0,1,0.45,1,1V62z"></path></g><g> <path fill="none" stroke="#000000" stroke-width="2.25" stroke-miterlimit="10" d="M36.265,62c0,0.55-0.45,1-1,1h-8 c-0.55,0-1-0.45-1-1v-7c0-0.55,0.45-1,1-1h8c0.55,0,1,0.45,1,1V62z"></path></g><g> <path fill="none" stroke="#000000" stroke-width="2.25" stroke-miterlimit="10" d="M50.765,62c0,0.55-0.45,1-1,1h-8 c-0.55,0-1-0.45-1-1v-7c0-0.55,0.45-1,1-1h8c0.55,0,1,0.45,1,1V62z"></path></g><line fill="none" stroke="#000000" stroke-width="2.25" stroke-miterlimit="10" x1="53.765" y1="22.125" x2="67" y2="22.125"></line><line fill="none" stroke="#000000" stroke-width="2.25" stroke-miterlimit="10" x1="53.765" y1="34.125" x2="69.875" y2="34.125"></line><line fill="none" stroke="#000000" stroke-width="2.25" stroke-miterlimit="10" x1="53.765" y1="46.125" x2="69.875" y2="46.125"></line><line fill="none" stroke="#000000" stroke-width="2.25" stroke-miterlimit="10" x1="53.765" y1="58.125" x2="64.125" y2="58.125"></line></svg>