<svg xmlns="http://www.w3.org/2000/svg" xmlns:xlink="http://www.w3.org/1999/xlink" id="Element_40" x="0px" y="0px" width="80px" height="80px" viewBox="0 0 80 80" xml:space="preserve"><path fill="#030303" stroke="#030303" stroke-width="0.5" stroke-miterlimit="10" d="M68.409,23.398H34.161 c-0.504,0-0.914-0.581-0.914-1.285s0.41-1.283,0.914-1.283h34.248c0.504,0,0.913,0.579,0.913,1.283S68.913,23.398,68.409,23.398z"></path><path fill="#030303" stroke="#030303" stroke-width="0.5" stroke-miterlimit="10" d="M68.409,30.608H26.581 c-0.504,0-0.915-0.581-0.915-1.284c0-0.705,0.41-1.284,0.915-1.284h41.828c0.504,0,0.913,0.579,0.913,1.284 C69.322,30.027,68.913,30.608,68.409,30.608z"></path><path fill="#030303" stroke="#030303" stroke-width="0.5" stroke-miterlimit="10" d="M68.409,37.819H39.214 c-0.504,0-0.915-0.581-0.915-1.283c0-0.706,0.41-1.286,0.915-1.286h29.195c0.504,0,0.913,0.58,0.913,1.286 C69.322,37.238,68.913,37.819,68.409,37.819z"></path><path fill="#030303" stroke="#030303" stroke-width="0.5" stroke-miterlimit="10" d="M68.409,23.398H34.161 c-0.504,0-0.914-0.581-0.914-1.285s0.41-1.283,0.914-1.283h34.248c0.504,0,0.913,0.579,0.913,1.283S68.913,23.398,68.409,23.398z"></path><path fill="#030303" stroke="#030303" stroke-width="0.5" stroke-miterlimit="10" d="M68.409,30.608H26.581 c-0.504,0-0.915-0.581-0.915-1.284c0-0.705,0.41-1.284,0.915-1.284h41.828c0.504,0,0.913,0.579,0.913,1.284 C69.322,30.027,68.913,30.608,68.409,30.608z"></path><path fill="#030303" stroke="#030303" stroke-width="0.5" stroke-miterlimit="10" d="M68.409,37.819H39.214 c-0.504,0-0.915-0.581-0.915-1.283c0-0.706,0.41-1.286,0.915-1.286h29.195c0.504,0,0.913,0.58,0.913,1.286 C69.322,37.238,68.913,37.819,68.409,37.819z"></path><path fill="#030303" stroke="#030303" stroke-width="0.5" stroke-miterlimit="10" d="M24.149,63.241 c-0.494,0-0.984-0.121-1.419-0.352l-7.537-3.961c-0.026-0.014-0.054-0.021-0.082-0.021s-0.056,0.007-0.082,0.021l-7.537,3.962 c-0.435,0.229-0.926,0.351-1.42,0.351c-0.647,0-1.268-0.202-1.793-0.584c-0.932-0.677-1.408-1.848-1.212-2.982l1.439-8.393 c0.01-0.058-0.01-0.115-0.051-0.156l-6.097-5.941c-0.826-0.804-1.129-2.032-0.772-3.128c0.361-1.112,1.305-1.907,2.463-2.075 l8.426-1.225c0.057-0.009,0.106-0.045,0.131-0.096l3.769-7.636c0.518-1.05,1.566-1.701,2.735-1.701c1.152,0,2.226,0.668,2.736,1.701 l3.769,7.636c0.025,0.051,0.075,0.087,0.131,0.096l8.426,1.225c1.158,0.168,2.102,0.963,2.463,2.075 c0.355,1.097,0.052,2.324-0.772,3.128l-6.097,5.941c-0.042,0.041-0.06,0.099-0.051,0.156l1.439,8.393 c0.195,1.135-0.282,2.306-1.214,2.982C25.418,63.039,24.798,63.241,24.149,63.241z M5.34,61.025 c-0.011,0.065,0.016,0.132,0.07,0.172c0.031,0.021,0.066,0.032,0.103,0.032c0.028,0,0.056-0.007,0.082-0.021l9.518-5.003 l9.517,5.003c0.026,0.014,0.054,0.021,0.082,0.021c0.036,0,0.072-0.011,0.103-0.032c0.054-0.04,0.081-0.106,0.07-0.172 l-1.817-10.599l7.7-7.506c0.048-0.047,0.065-0.116,0.044-0.179c-0.021-0.063-0.075-0.11-0.141-0.12l-10.642-1.546l-4.759-9.643 c-0.029-0.061-0.09-0.098-0.157-0.098s-0.127,0.037-0.156,0.098l-4.76,9.643l-10.641,1.546c-0.066,0.01-0.121,0.057-0.142,0.12 c-0.021,0.063-0.003,0.132,0.044,0.179l7.7,7.506L5.34,61.025z"></path><g> <path fill="#030303" stroke="#030303" stroke-width="0.5" stroke-miterlimit="10" d="M74.555,6.666H17.178 c-2.809,0-5.095,2.228-5.095,5.039v9.676c0.159-0.008,0.313,0,0.478,0c0.754,0,1.446-0.157,2.091,0v-9.676 c0-1.405,1.124-2.612,2.526-2.612h57.377c1.408,0,2.572,1.207,2.572,2.612v37.206c0,1.405-1.164,2.612-2.572,2.612h-3.494h-2v2.427 v7.879l-6.639-7.879l-2.045-2.427h-2.615H36.725c0.079,0.808,0.132,1.627,0,2.427h23.082l11.254,13.357V53.95h3.494 c2.813,0,5.141-2.228,5.141-5.039V11.705C79.695,8.894,77.367,6.666,74.555,6.666z"></path></g></svg>