<svg xmlns="http://www.w3.org/2000/svg" xmlns:xlink="http://www.w3.org/1999/xlink" id="Element_6" x="0px" y="0px" width="80px" height="80px" viewBox="0 0 80 80" xml:space="preserve"><path d="M56.658,37.569c-1.277,0-2.546,0.322-3.668,0.932l-0.185,0.1V29.53c0-1.573-1.149-2.853-2.563-2.853h-8.858l0.063-0.168 c0.317-0.86,0.479-1.76,0.479-2.673c0-4.255-3.458-7.717-7.709-7.717s-7.709,3.462-7.709,7.717c0,0.918,0.16,1.817,0.477,2.673 l0.062,0.168h-8.539c-1.589,0-2.882,1.2-2.882,2.675v9.87c0,1.494,0.901,1.655,1.288,1.655c0.206,0,0.418-0.05,0.629-0.147 l0.16-0.093c0.929-0.642,2.031-0.983,3.179-0.983c3.103,0,5.626,2.524,5.626,5.628c0,3.104-2.524,5.63-5.626,5.63 c-1.07,0-2.11-0.302-3.008-0.873l-0.184-0.094c-0.564-0.222-1.221-0.104-1.632,0.323c-0.278,0.291-0.431,0.689-0.431,1.124v9.662 c0,1.562,1.41,2.832,3.143,2.832h9.748c0.702,0,1.196-0.242,1.471-0.72c0.196-0.341,0.33-0.918-0.146-1.737l-0.082-0.119 c-0.763-0.987-1.168-2.178-1.168-3.437c0-3.104,2.524-5.63,5.626-5.63s5.625,2.525,5.625,5.63c0,1.291-0.447,2.552-1.259,3.552 l-0.135,0.214c-0.352,0.726-0.136,1.267,0.024,1.522c0.288,0.461,0.822,0.725,1.467,0.725h10.009c1.603,0,2.858-1.037,2.858-2.36 v-9.563l0.185,0.1c1.126,0.611,2.397,0.934,3.675,0.934c4.251,0,7.71-3.461,7.71-7.715C64.375,41.029,60.913,37.569,56.658,37.569z M56.665,50.912c-1.32,0-2.574-0.457-3.625-1.321c-0.26-0.189-0.559-0.292-0.86-0.292c-0.9,0-1.457,0.843-1.457,1.623v10.6 l-0.035,0.036c-0.088,0.091-0.343,0.243-0.74,0.243h-9.092l0.103-0.186c0.633-1.145,0.968-2.438,0.968-3.741 c0-4.255-3.458-7.716-7.709-7.716s-7.709,3.461-7.709,7.716c0,1.333,0.324,2.592,0.964,3.741l0.103,0.186h-8.806 c-0.634,0-1.06-0.386-1.06-0.746v-8.737l0.174,0.073c0.949,0.402,1.958,0.606,2.999,0.606c4.251,0,7.709-3.461,7.709-7.715 c0-4.253-3.458-7.713-7.709-7.713c-1.043,0-2.052,0.203-2.999,0.604l-0.174,0.073v-8.895c0-0.285,0.321-0.59,0.799-0.59h9.447 c0.424,0,1.036-0.194,1.361-0.74c0.261-0.438,0.257-0.951-0.01-1.445c-0.467-0.831-0.715-1.78-0.715-2.742 c0-3.105,2.524-5.632,5.626-5.632s5.625,2.526,5.625,5.632c0,0.943-0.238,1.875-0.688,2.695l-0.052,0.11 c-0.207,0.5-0.17,1.026,0.104,1.436c0.287,0.429,0.804,0.686,1.381,0.686h9.657c0.227,0,0.479,0.328,0.479,0.768v10.369 c0,0.876,0.563,1.537,1.311,1.537c0.227,0,0.566-0.063,0.897-0.365c1.03-0.914,2.355-1.417,3.734-1.417 c3.103,0,5.626,2.524,5.626,5.628C62.291,48.387,59.768,50.912,56.665,50.912z"></path></svg>