<svg xmlns="http://www.w3.org/2000/svg" xmlns:xlink="http://www.w3.org/1999/xlink" id="Element_43" x="0px" y="0px" width="80px" height="80px" viewBox="0 0 80 80" xml:space="preserve"><g> <path d="M19.776,54.875h24.241V41.004H19.776V54.875z M29.226,52.804v-9.727h5.799v9.725h-5.799V52.804z M41.932,52.804h-4.823 v-9.727h4.823V52.804z M21.862,43.077h5.277v9.725h-5.277V43.077z"></path> <path d="M66.311,29.645c-0.163-0.35-0.34-0.738-0.541-1.18l-3.905-8.55l-0.087-0.154c-0.981-1.428-2.19-1.729-3.029-1.729 L19.384,18c-1.33,0-2.793,1.341-3.166,2.206l-3.779,8.273c-0.166,0.378-0.327,0.734-0.484,1.075 c-0.756,1.663-1.354,2.979-1.354,4.307l0.01,0.146c0.441,3.111,2.713,5.289,5.776,5.699v18.217c0,1.146,0.937,2.077,2.085,2.077 h42.553c1.147,0,2.086-0.931,2.086-2.077v-18.56c2.395-0.438,4.105-2.386,4.479-5.215l0.012-0.135 C67.601,32.436,67.114,31.384,66.311,29.645z M38.544,32.837c0,2.508-2.717,4.55-6.06,4.55c-2.923,0-5.298-1.875-5.499-4.232 l2.698-13.068l8.863,0.007v12.745L38.544,32.837L38.544,32.837z M40.627,20.092l8.403,0.007l2.708,13.033 c-0.161,2.365-2.411,4.255-5.181,4.255c-3.269,0-5.932-2.042-5.932-4.551L40.627,20.092L40.627,20.092z M12.688,33.793 c0.025-0.872,0.532-1.984,1.167-3.385c0.158-0.349,0.326-0.714,0.488-1.085l3.782-8.277c0.137-0.304,0.94-0.955,1.259-0.974 l8.17,0.008L24.92,32.833h-0.062c0,0.16-0.014,0.316-0.037,0.472l-0.025,0.12h0.001c-0.447,2.411-3.579,4.288-7.369,4.288 C14.874,37.716,13.063,36.215,12.688,33.793z M48.645,57.859V43.077h8.198v14.781L48.645,57.859L48.645,57.859z M58.926,57.923 V41.004H46.558v16.918H18.474V39.747c3.2-0.259,5.926-1.679,7.367-3.67c1.309,2.016,3.792,3.382,6.643,3.382 c3.041,0,5.694-1.364,7.092-3.381c1.378,2.017,3.987,3.381,6.982,3.381c2.767,0,5.179-1.397,6.416-3.451 c1.564,1.888,4.52,3.201,8.052,3.42v18.495H58.926z M62.067,37.386c-4.45,0-8.211-2.07-8.211-4.518h-0.042L51.159,20.1l7.584,0.007 c0.337,0,0.777,0.089,1.261,0.755l3.861,8.457c0.198,0.439,0.379,0.835,0.546,1.191c0.738,1.601,1.086,2.351,1.1,3.437 C65.205,36.102,63.919,37.386,62.067,37.386z"></path></g></svg>