<svg xmlns="http://www.w3.org/2000/svg" xmlns:xlink="http://www.w3.org/1999/xlink" id="Element_44" x="0px" y="0px" width="80px" height="80px" viewBox="0 0 80 80" xml:space="preserve"><path fill="#030303" stroke="#030303" stroke-width="0.25" stroke-miterlimit="10" d="M73.005,12.557H7.871 c-2.81,0-5.096,2.228-5.096,5.039v44.206c0,2.812,2.286,5.039,5.096,5.039h65.134c2.813,0,5.142-2.228,5.142-5.039V17.596 C78.146,14.784,75.817,12.557,73.005,12.557z M75.577,61.802c0,1.405-1.165,2.612-2.572,2.612H7.871 c-1.403,0-2.527-1.207-2.527-2.612V17.596c0-1.405,1.124-2.612,2.527-2.612h65.134c1.407,0,2.572,1.207,2.572,2.612V61.802z"></path><path fill="#030303" d="M75.591,52.65H4.938c-0.702,0-1.274-0.581-1.274-1.285s0.572-1.283,1.274-1.283h70.653 c0.703,0,1.274,0.579,1.274,1.283S76.294,52.65,75.591,52.65z"></path><g> <path fill="#030303" d="M35.175,43.462c-0.231,0-0.462-0.06-0.669-0.181c-0.414-0.238-0.668-0.68-0.668-1.157l0.002-16.251 c0-0.478,0.255-0.919,0.668-1.158c0.414-0.237,0.923-0.238,1.336-0.002l14.136,8.124c0.416,0.238,0.672,0.681,0.672,1.16 c0,0.479-0.256,0.921-0.672,1.16l-14.138,8.127C35.636,43.402,35.405,43.462,35.175,43.462z M36.516,28.185l-0.003,11.628 l10.117-5.815L36.516,28.185z"></path></g><path fill="#030303" d="M17.663,60.051h0.782c0.646,0,1.172-0.524,1.172-1.174c0-0.646-0.525-1.172-1.172-1.172h-0.782 c-0.646,0-1.172,0.526-1.172,1.172C16.491,59.526,17.017,60.051,17.663,60.051z"></path><path fill="#030303" d="M9.847,60.051h0.781c0.647,0,1.174-0.524,1.174-1.174c0-0.646-0.526-1.172-1.174-1.172H9.847 c-0.648,0-1.174,0.526-1.174,1.172C8.673,59.526,9.198,60.051,9.847,60.051z"></path><path fill="#030303" d="M13.754,60.051h0.782c0.649,0,1.173-0.524,1.173-1.174c0-0.646-0.523-1.172-1.173-1.172h-0.782 c-0.646,0-1.172,0.526-1.172,1.172C12.582,59.526,13.107,60.051,13.754,60.051z"></path><path fill="#030303" d="M71.123,60.051h0.783c0.646,0,1.171-0.524,1.171-1.174c0-0.646-0.524-1.172-1.171-1.172h-0.783 c-0.646,0-1.171,0.526-1.171,1.172C69.952,59.526,70.477,60.051,71.123,60.051z"></path><g> <path fill="none" d="M30.907,60.163c0.491,0.795,1.363,1.331,2.365,1.331c1.001,0,1.874-0.536,2.365-1.331H30.907z"></path> <path fill="none" d="M33.272,55.921c-1.141,0-2.121,0.69-2.552,1.674h5.104C35.393,56.611,34.412,55.921,33.272,55.921z"></path> <path fill="#030303" d="M28.855,57.595h-3.215c-0.703,0-1.275,0.579-1.275,1.283s0.572,1.285,1.275,1.285h3.32 c-0.155-0.46-0.26-0.943-0.26-1.456C28.701,58.321,28.765,57.952,28.855,57.595z"></path> <path fill="#030303" d="M65.577,57.595H37.689c0.091,0.357,0.153,0.727,0.153,1.112c0,0.513-0.104,0.996-0.26,1.456h27.994 c0.703,0,1.274-0.581,1.274-1.285S66.28,57.595,65.577,57.595z"></path> <path fill="#030303" d="M37.689,57.595c-0.5-1.981-2.282-3.458-4.417-3.458s-3.918,1.477-4.417,3.458 c-0.091,0.357-0.154,0.727-0.154,1.112c0,0.513,0.104,0.996,0.26,1.456c0.611,1.804,2.303,3.115,4.312,3.115 c2.008,0,3.699-1.312,4.311-3.115c0.156-0.46,0.26-0.943,0.26-1.456C37.843,58.321,37.78,57.952,37.689,57.595z M33.272,61.494 c-1.002,0-1.874-0.536-2.365-1.331c-0.263-0.426-0.422-0.921-0.422-1.456c0-0.396,0.085-0.771,0.235-1.112 c0.431-0.983,1.411-1.674,2.552-1.674c1.14,0,2.12,0.69,2.552,1.674c0.149,0.341,0.235,0.717,0.235,1.112 c0,0.535-0.16,1.03-0.422,1.456C35.146,60.958,34.273,61.494,33.272,61.494z"></path></g></svg>