<svg xmlns="http://www.w3.org/2000/svg" xmlns:xlink="http://www.w3.org/1999/xlink" id="Element_22" x="0px" y="0px" width="80px" height="80px" viewBox="0 0 80 80" xml:space="preserve"><g> <path d="M32.652,19.901l-1.491-2.08l-10.075,7.21l-2.922-4.672l-2.171,1.355l4.368,6.983L32.652,19.901z"></path> <path d="M36.751,24.75h25.761c0.824,0,1.495-0.67,1.495-1.494c0-0.824-0.671-1.495-1.495-1.495H36.751 c-0.824,0-1.495,0.671-1.495,1.495C35.256,24.08,35.927,24.75,36.751,24.75z"></path> <path d="M21.086,39.53l-2.923-4.677l-2.171,1.356l4.369,6.984l12.292-8.797l-1.49-2.08L21.086,39.53z"></path> <path d="M62.512,36.257H36.751c-0.824,0-1.495,0.67-1.495,1.494c0,0.823,0.671,1.493,1.495,1.493h25.761 c0.824,0,1.495-0.67,1.495-1.493C64.007,36.927,63.336,36.257,62.512,36.257z"></path> <path d="M21.086,54.158l-2.923-4.674l-2.171,1.354l4.368,6.984l12.292-8.797l-1.49-2.08L21.086,54.158z"></path> <path d="M62.512,50.885H36.751c-0.824,0-1.495,0.67-1.495,1.494s0.671,1.494,1.495,1.494h25.761c0.824,0,1.495-0.67,1.495-1.494 S63.336,50.885,62.512,50.885z"></path></g></svg>