<svg xmlns="http://www.w3.org/2000/svg" xmlns:xlink="http://www.w3.org/1999/xlink" id="Element_30" x="0px" y="0px" width="80px" height="80px" viewBox="0 0 80 80" xml:space="preserve"><path fill="#030303" d="M73.545,65.363l-0.397-0.298l0.476-0.142c0.453-0.136,0.77-0.557,0.77-1.023 c0-0.508-0.366-0.948-0.871-1.049l-14.671-0.027l-0.262-1.249h13.1c0.625,0,1.788,0,2.159-1.684l2.079-9.446 c0.154-0.537,0.063-1.071-0.247-1.481c-0.334-0.438-0.888-0.699-1.48-0.699H55.816l-0.111-0.534c-0.174-1.11-0.96-1.767-2.105-1.767 l-4.458-0.002c-0.601,0-1.09,0.48-1.09,1.071s0.489,1.071,1.09,1.071l4.426,0.005l0.042,0.199l3.135,15.046 c0.16,0.631,0.468,1.085,0.912,1.34l0.389,0.223l-0.394,0.214c-1.007,0.547-1.633,1.586-1.633,2.711c0,1.721,1.421,3.12,3.167,3.12 s3.166-1.399,3.166-3.12c0-0.949-0.432-1.834-1.184-2.429l-0.564-0.446h9.603l-0.566,0.446c-0.753,0.594-1.185,1.479-1.185,2.429 c0,1.721,1.423,3.12,3.171,3.12c1.745,0,3.165-1.399,3.165-3.12C74.791,66.86,74.337,65.957,73.545,65.363z M56.265,50.405h17.454 l-1.997,9.029H58.144L56.265,50.405z M59.187,68.819c-0.549,0-0.995-0.438-0.995-0.978c0-0.54,0.446-0.979,0.995-0.979 c0.548,0,0.993,0.438,0.993,0.979C60.18,68.381,59.734,68.819,59.187,68.819z M71.626,68.819c-0.549,0-0.995-0.438-0.995-0.978 c0-0.54,0.446-0.979,0.995-0.979c0.547,0,0.992,0.438,0.992,0.979C72.618,68.381,72.173,68.819,71.626,68.819z"></path><path fill="none" stroke="#000000" stroke-width="2.5" stroke-miterlimit="10" d="M31.558,11.548h15.52h0.088 c1.949,0,3.063,0.938,3.525,2.291l0.15,0.528l1.664,5.863"></path><path fill="none" stroke="#000000" stroke-width="2.5" stroke-miterlimit="10" d="M15.956,11.548h15.491h0.111 c1.949,0,3.219,1.027,3.58,2.465l1.766,6.217"></path><path stroke="#000000" stroke-width="0.5" stroke-miterlimit="10" d="M9.473,59.401c-1.351,0-2.447-1.315-2.447-2.932V15.358 c0-1.473,1.097-2.671,2.447-2.671h6.922c1.283,0,2.169,0.533,2.429,1.456l2.039,7.227h42.444c1.416,0,2.568,1.179,2.568,2.629 v21.714h2.279V23.998c0-2.707-2.174-4.908-4.848-4.908H22.587l-1.569-5.561c-0.543-1.925-2.314-3.121-4.623-3.121H9.212v0.007 c-2.485,0.142-4.466,2.308-4.466,5.043V56.47c0,2.872,2.121,5.21,4.727,5.21h43.921l-0.59-2.278H9.473z"></path></svg>