<svg xmlns="http://www.w3.org/2000/svg" xmlns:xlink="http://www.w3.org/1999/xlink" x="0px" y="0px" width="80px" height="80px" viewBox="0 0 80 80" xml:space="preserve"><g id="Element_15_1"> <g> <path fill="#030303" d="M36.488,35.565c1.957,0,3.549-1.593,3.549-3.549s-1.592-3.549-3.549-3.549 c-1.956,0-3.548,1.593-3.548,3.549S34.532,35.565,36.488,35.565z M36.488,30.266c0.965,0,1.75,0.785,1.75,1.75 s-0.785,1.75-1.75,1.75s-1.75-0.785-1.75-1.75S35.523,30.266,36.488,30.266z"></path> <path fill="#030303" d="M48.229,51h-1.707l-7.951-7.789c-0.348-0.342-0.904-0.344-1.254-0.004l-3.251,3.16l-8.364-9.442 c-0.339-0.339-0.939-0.342-1.277-0.001L12.453,51h-1.687c-0.496,0-0.899,0.41-0.899,0.908c0,0.494,0.403,0.906,0.899,0.906h2.022 h25.547h7.869h2.023c0.496,0,0.898-0.412,0.898-0.906C49.127,51.41,48.725,51,48.229,51z M37.939,45.088L44,51h-5.283 l-3.334-3.439L37.939,45.088z M25.063,38.789L36.178,51h-21.23L25.063,38.789z"></path> </g></g><g id="Element_15_2"> <g> <path d="M62.943,22.511v15.558h1.881V22.305l5.301,5.924l1.408-1.229l-7.688-8.594l-6.949,8.63l1.473,1.156L62.943,22.511z"></path> <path d="M64.824,60.902V45.139h-1.881v15.557l-4.574-5.68l-1.473,1.154l6.949,8.633l7.688-8.596l-1.408-1.229L64.824,60.902z"></path> </g> <path fill="none" stroke="#000000" stroke-width="2.5" stroke-miterlimit="10" d="M51.975,61.96c0,1.584-1.604,2.88-3.568,2.88 H10.588c-1.963,0-3.568-1.296-3.568-2.88V21.264c0-1.583,1.605-2.879,3.568-2.879h37.818c1.965,0,3.568,1.296,3.568,2.879V61.96z"></path></g></svg>