<svg xmlns="http://www.w3.org/2000/svg" xmlns:xlink="http://www.w3.org/1999/xlink" x="0px" y="0px" width="80px" height="80px" viewBox="0 0 80 80" xml:space="preserve"><g id="Element_16_1"></g><g id="Element_16_2"> <g> <path fill="#030303" d="M44.577,30.02c2.645,0,4.795-2.152,4.795-4.796c0-2.643-2.15-4.795-4.795-4.795 c-2.644,0-4.795,2.152-4.795,4.795C39.782,27.868,41.934,30.02,44.577,30.02z M44.577,22.859c1.304,0,2.364,1.06,2.364,2.364 c0,1.304-1.061,2.366-2.364,2.366c-1.305,0-2.365-1.062-2.365-2.366C42.212,23.918,43.272,22.859,44.577,22.859z"></path> <path fill="#030303" d="M58.737,50.143l-9.994-9.791c-0.471-0.461-1.223-0.463-1.696-0.004l-4.393,4.267L29.999,31.858 c-0.457-0.46-1.269-0.463-1.726-0.003L9.394,50.877H7.115c-0.67,0-1.215,0.553-1.215,1.225c0,0.67,0.545,1.225,1.215,1.225h2.732 h38.578h8.436C57.343,52.176,57.982,51.112,58.737,50.143z M12.764,50.877l16.373-16.501l16.373,16.501H12.764z M44.435,46.229 l3.456-3.342l8.19,7.99h-7.14L44.435,46.229z"></path> </g> <line fill="none" stroke="#030303" stroke-width="2" stroke-miterlimit="10" x1="63.745" y1="58.736" x2="75.745" y2="58.736"></line> <line fill="none" stroke="#030303" stroke-width="2" stroke-miterlimit="10" x1="69.745" y1="52.736" x2="69.745" y2="64.736"></line> <circle fill="none" stroke="#030303" stroke-width="2.5" stroke-miterlimit="10" cx="69.745" cy="58.736" r="11"></circle> <path fill="#1A1818" d="M55.745,58.736c0-0.028,0.004-0.057,0.004-0.084H3.289c-1.17,0-2.158-1.026-2.158-2.241V14.268 c0-1.215,0.988-2.241,2.158-2.241h62.326c1.193,0,2.201,1.026,2.201,2.241v30.617c0.633-0.088,1.273-0.148,1.93-0.148 c0.345,0,0.682,0.027,1.021,0.052V14.268c0-2.786-2.312-5.053-5.151-5.053H3.289c-2.816,0-5.107,2.267-5.107,5.053v42.144 c0,2.786,2.291,5.054,5.107,5.054h52.726C55.841,60.582,55.745,59.67,55.745,58.736z"></path></g></svg>