<svg xmlns="http://www.w3.org/2000/svg" xmlns:xlink="http://www.w3.org/1999/xlink" id="Element_35" x="0px" y="0px" width="80px" height="80px" viewBox="0 0 80 80" xml:space="preserve"><g> <path d="M62.605,18.975H18.394c-1.523,0-2.763,1.256-2.763,2.799V60.16c0,1.543,1.239,2.799,2.763,2.799h44.212 c1.523,0,2.764-1.256,2.764-2.799V21.773C65.369,20.23,64.129,18.975,62.605,18.975z M18.394,21.373h44.212 c0.214,0,0.395,0.184,0.395,0.4v7.022H17.999v-7.022C17.999,21.557,18.18,21.373,18.394,21.373z M62.605,60.56H18.394 c-0.214,0-0.395-0.183-0.395-0.399V30.395H63V60.16C63,60.377,62.819,60.56,62.605,60.56z"></path> <path d="M24.031,37.464h32.937v-1.6H24.031V37.464z"></path> <path d="M24.031,55.491h32.937v-1.6H24.031V55.491z"></path> <path d="M25.959,41.205h-1.688v8.522h4.459v-1.307h-2.771V41.205z"></path> <path d="M35.884,41.645c-0.655-0.374-1.38-0.561-2.176-0.561c-0.787,0-1.51,0.187-2.169,0.561s-1.182,0.894-1.566,1.556 c-0.387,0.664-0.579,1.41-0.579,2.241c0,0.838,0.192,1.588,0.579,2.252c0.385,0.664,0.907,1.183,1.566,1.556 c0.659,0.375,1.382,0.563,2.169,0.563c0.788,0,1.511-0.188,2.17-0.563c0.658-0.373,1.179-0.892,1.561-1.556 s0.572-1.414,0.572-2.252c0-0.831-0.19-1.577-0.572-2.241C37.057,42.538,36.539,42.019,35.884,41.645z M35.95,46.913 c-0.217,0.418-0.519,0.744-0.904,0.976s-0.832,0.349-1.338,0.349s-0.954-0.117-1.344-0.349s-0.692-0.558-0.909-0.976 c-0.218-0.42-0.326-0.91-0.326-1.472c0-0.561,0.108-1.052,0.326-1.471c0.217-0.42,0.52-0.742,0.909-0.971 c0.39-0.229,0.838-0.342,1.344-0.342S34.66,42.771,35.046,43c0.386,0.229,0.688,0.551,0.904,0.971 c0.217,0.419,0.325,0.91,0.325,1.471C36.275,46.003,36.167,46.493,35.95,46.913z"></path> <path d="M42.711,46.284h2.893c-0.12,0.618-0.388,1.102-0.801,1.452c-0.415,0.35-0.942,0.524-1.586,0.524 c-0.521,0-0.98-0.113-1.373-0.341c-0.394-0.228-0.701-0.554-0.922-0.978c-0.222-0.422-0.332-0.919-0.332-1.489 c0-0.553,0.108-1.041,0.325-1.464c0.218-0.424,0.519-0.749,0.905-0.978c0.385-0.228,0.827-0.342,1.324-0.342 c0.451,0,0.844,0.095,1.182,0.281s0.604,0.46,0.795,0.817h1.941c-0.266-0.847-0.748-1.504-1.446-1.971 c-0.7-0.468-1.523-0.703-2.472-0.703c-0.803,0-1.531,0.186-2.187,0.556s-1.169,0.888-1.543,1.55 c-0.374,0.664-0.561,1.415-0.561,2.253c0,0.839,0.187,1.588,0.561,2.247c0.374,0.658,0.888,1.174,1.543,1.544 s1.388,0.555,2.199,0.555c0.723,0,1.376-0.151,1.958-0.457s1.059-0.709,1.429-1.214s0.61-1.055,0.723-1.649V44.99h-4.556V46.284z"></path> <path d="M56.155,43.2c-0.382-0.662-0.899-1.182-1.555-1.556c-0.654-0.374-1.381-0.561-2.176-0.561 c-0.788,0-1.511,0.187-2.169,0.561c-0.659,0.374-1.181,0.894-1.566,1.556c-0.386,0.664-0.579,1.41-0.579,2.241 c0,0.838,0.193,1.588,0.579,2.252s0.907,1.183,1.566,1.556c0.658,0.375,1.381,0.563,2.169,0.563s1.511-0.188,2.169-0.563 c0.66-0.373,1.18-0.892,1.562-1.556c0.381-0.664,0.571-1.414,0.571-2.252C56.727,44.61,56.536,43.864,56.155,43.2z M54.667,46.913 c-0.219,0.418-0.52,0.744-0.905,0.976c-0.384,0.231-0.831,0.349-1.337,0.349s-0.954-0.117-1.344-0.349 c-0.391-0.231-0.694-0.558-0.91-0.976c-0.217-0.42-0.325-0.91-0.325-1.472c0-0.561,0.108-1.052,0.325-1.471 c0.216-0.42,0.52-0.742,0.91-0.971c0.39-0.229,0.838-0.342,1.344-0.342s0.953,0.112,1.337,0.342 c0.386,0.229,0.687,0.551,0.905,0.971c0.218,0.419,0.326,0.91,0.326,1.471C54.993,46.003,54.885,46.493,54.667,46.913z"></path> <path d="M23.286,27.771c1.306,0,2.368-1.076,2.368-2.398c0-1.323-1.063-2.4-2.368-2.4s-2.368,1.077-2.368,2.4 C20.918,26.694,21.98,27.771,23.286,27.771z M23.286,24.572c0.436,0,0.79,0.359,0.79,0.8s-0.354,0.8-0.79,0.8 s-0.789-0.359-0.789-0.8S22.851,24.572,23.286,24.572z"></path> <path d="M29.602,27.771c1.307,0,2.369-1.076,2.369-2.398c0-1.323-1.063-2.4-2.369-2.4c-1.306,0-2.368,1.077-2.368,2.4 C27.233,26.694,28.296,27.771,29.602,27.771z M29.602,24.572c0.436,0,0.79,0.359,0.79,0.8s-0.354,0.8-0.79,0.8 c-0.435,0-0.789-0.359-0.789-0.8S29.167,24.572,29.602,24.572z"></path> <path d="M35.918,27.771c1.307,0,2.369-1.076,2.369-2.398c0-1.323-1.063-2.4-2.369-2.4s-2.368,1.077-2.368,2.4 C33.55,26.694,34.611,27.771,35.918,27.771z M35.918,24.572c0.435,0,0.79,0.359,0.79,0.8s-0.355,0.8-0.79,0.8 c-0.436,0-0.789-0.359-0.789-0.8S35.482,24.572,35.918,24.572z"></path></g></svg>