<svg xmlns="http://www.w3.org/2000/svg" xmlns:xlink="http://www.w3.org/1999/xlink" id="Element_26" x="0px" y="0px" width="80px" height="80px" viewBox="0 0 80 80" xml:space="preserve"><g> <path fill="#181818" d="M51.388,27.772h-8.983c-0.621,0-1.123,0.502-1.123,1.123c0,0.621,0.502,1.123,1.123,1.123h8.983 c0.621,0,1.122-0.502,1.122-1.123C52.51,28.274,52.009,27.772,51.388,27.772z"></path></g><path fill="#181818" d="M23.314,69.553c-1.985,0-3.601-1.615-3.601-3.6V41.479h-7.629c-0.368,0-0.726-0.152-0.98-0.42 c-0.252-0.264-0.389-0.628-0.373-0.998c1.089-23.918,9.454-26.754,11.12-27.08l1.693-0.493l7.314-1.754 c0.098-0.023,0.203-0.035,0.309-0.035c0.634,0,1.178,0.426,1.323,1.037c0.021,0.089,0.031,0.188,0.031,0.316v0.892h0.11 c0.604,2.546,3.749,4.492,7.525,4.492s6.922-1.946,7.525-4.492h0.104l0.005-0.892c0-0.122,0.011-0.227,0.032-0.321 c0.146-0.605,0.69-1.032,1.323-1.032c0.104,0,0.21,0.012,0.313,0.037l7.243,1.735l1.681,0.492 c1.747,0.345,10.112,3.179,11.199,27.102c0.017,0.368-0.119,0.731-0.372,0.996c-0.256,0.268-0.612,0.42-0.98,0.42h-7.629v24.475 c0,1.984-1.615,3.6-3.601,3.6H23.314z M21.068,29.787c0.746,0,1.354,0.607,1.354,1.354v35.704h35.472V31.141 c0-0.747,0.607-1.354,1.354-1.354c0.747,0,1.354,0.607,1.354,1.354v7.63h6.207l-0.067-0.954 c-1.426-20.334-8.498-22.111-8.799-22.177l-0.117-0.019l-1.765-0.519l-5.746-1.378l-0.286,0.717 c-1.337,3.357-5.396,5.701-9.871,5.701c-4.475,0-8.533-2.344-9.871-5.701l-0.286-0.717l-5.704,1.366l-1.724,0.505 c-0.069,0.021-0.139,0.035-0.21,0.043l-0.895,0.107l0.032,0.246c-1.906,1.08-6.776,5.419-7.927,21.825l-0.067,0.954h6.207v-7.63 C19.714,30.394,20.322,29.787,21.068,29.787z"></path></svg>