<svg xmlns="http://www.w3.org/2000/svg" xmlns:xlink="http://www.w3.org/1999/xlink" x="0px" y="0px" width="70px" height="70px" viewBox="0 0 70 70" xml:space="preserve"><g> <path fill="none" stroke="" stroke-width="2.5" stroke-miterlimit="10" d="M29.883,20.729 c-4.244,4.006-6.423,9.841-6.54,17.498l7.776,1.059V54.66H14.858v-7.245c0-5.771,0.237-10.542,0.708-14.315 c0.588-4.358,2.296-8.481,5.126-12.371c1.527-2.002,3.295-3.71,5.3-5.124L29.883,20.729z M54.091,20.729 c-4.356,3.656-6.597,9.487-6.709,17.498l8.481,1.059V54.66H39.424v-7.245c0-3.534,0.12-6.362,0.354-8.48 c0-1.297,0.057-2.533,0.177-3.713c0.113-1.647,0.291-2.945,0.531-3.89c0-0.234,0.113-0.734,0.354-1.502 c0.233-0.762,0.411-1.439,0.531-2.03c0.114-1.297,0.524-2.476,1.232-3.536c0.709-1.176,1.298-2.179,1.772-3.003 c1.055-1.768,2.94-3.65,5.654-5.655L54.091,20.729z"></path></g></svg>