<svg xmlns="http://www.w3.org/2000/svg" xmlns:xlink="http://www.w3.org/1999/xlink" id="Element_42" x="0px" y="0px" width="80px" height="80px" viewBox="0 0 80 80" xml:space="preserve"><g> <rect x="28.874" y="59.785" fill="none" width="20.214" height="3.047"></rect> <path fill="none" d="M46.093,18.501c4.425,0,7.396,2.644,8.834,7.858l0.04,0.296c0.001,0.011,0.001,0.019,0,0.024l0.042,0.148 l0.938,3.927L55.634,15.41H22.328l-0.313,15.348l0.963-4.017c1.678-5.144,4.64-7.915,8.806-8.237l5.079-0.003v39.055h3.948 c0-12.171,0-39.055,0-39.055H46.093z"></path> <path fill="#030303" d="M43.04,20.73h3.053c3.311,0,5.486,1.994,6.648,6.094c0.014,0.229,0.053,0.43,0.119,0.608l1.334,5.582h4.027 l-0.403-19.834H20.144l-0.404,19.834h4.028l1.344-5.624c1.391-4.234,3.629-6.415,6.758-6.66h2.764v36.825h-7.988v7.506h24.673 v-7.506H43.04C43.04,47.985,43.04,20.73,43.04,20.73z M49.088,59.785v3.047H28.874v-3.047H49.088z M36.862,57.556V18.501 l-5.079,0.003c-4.166,0.322-7.128,3.094-8.806,8.237l-0.963,4.017l0.313-15.348h33.306l0.313,15.345l-0.938-3.927l-0.042-0.148 c0.001-0.006,0.001-0.014,0-0.024l-0.04-0.296c-1.438-5.215-4.409-7.858-8.834-7.858h-5.282c0,0,0,26.884,0,39.055H36.862z"></path></g></svg>