<svg xmlns="http://www.w3.org/2000/svg" xmlns:xlink="http://www.w3.org/1999/xlink" id="Element_18" x="0px" y="0px" width="80px" height="80px" viewBox="0 0 80 80" xml:space="preserve"><g> <path fill="#030303" d="M54.891,56.474H24.297c-0.493,0-0.892,0.398-0.892,0.892s0.399,0.892,0.892,0.892h30.594 c0.492,0,0.892-0.398,0.892-0.892S55.383,56.474,54.891,56.474z"></path> <path fill="#030303" d="M48.518,61.572H30.67c-0.492,0-0.892,0.398-0.892,0.891c0,0.494,0.399,0.893,0.892,0.893h17.848 c0.492,0,0.893-0.398,0.893-0.893C49.41,61.971,49.01,61.572,48.518,61.572z"></path> <path fill="#030303" d="M33.183,42.728c0.03,0.36,0.095,0.71,0.183,1.05l-2.155,2.154l-1.339,2.68l1.596,0.797l1.209-2.42 l1.439-1.439c1.143,1.848,3.19,3.078,5.478,3.078c2.286,0,4.334-1.23,5.477-3.078l1.439,1.439l1.211,2.42l1.595-0.797l-1.34-2.68 l-2.154-2.153c0.088-0.341,0.153-0.69,0.184-1.051l0.146-1.75h4.915v-1.784h-4.767l0.269-3.22c0.011-0.132-0.007-0.263-0.009-0.395 l0.039,0.04l2.652-2.653l1.34-2.679l-1.596-0.798l-1.209,2.42l-1.733,1.733c-0.154-0.277-0.333-0.541-0.55-0.777 c-0.648-0.704-1.528-1.135-2.467-1.263v-1.714c0-0.802-0.287-1.531-0.749-2.116l1.929-3.859l-1.595-0.797l-1.786,3.571 c-0.386-0.15-0.802-0.24-1.24-0.24c-0.439,0-0.855,0.091-1.241,0.241l-1.786-3.571l-1.595,0.797l1.929,3.858 c-0.461,0.585-0.748,1.314-0.748,2.116v1.714c-0.939,0.127-1.819,0.56-2.467,1.264c-0.217,0.237-0.396,0.5-0.55,0.776l-1.733-1.733 l-1.21-2.42l-1.596,0.798l1.34,2.679l2.652,2.653l0.04-0.041c-0.002,0.133-0.02,0.263-0.008,0.396l0.268,3.22h-4.767v1.784h4.916 L33.183,42.728z M41.251,29.888v1.658h-3.315v-1.658c0-0.914,0.744-1.658,1.658-1.658C40.507,28.23,41.251,28.974,41.251,29.888z M34.998,34.074c0.441-0.48,1.044-0.744,1.696-0.744h5.798c0.652,0,1.255,0.264,1.697,0.744c0.441,0.48,0.654,1.103,0.601,1.753 l-0.563,6.753c-0.199,2.391-2.234,4.264-4.633,4.264c-2.399,0-4.435-1.873-4.633-4.264l-0.563-6.753 C34.344,35.176,34.557,34.554,34.998,34.074z"></path></g><path fill="#030303" d="M20.467,69.975c-2.03,0-3.682-1.651-3.682-3.682V14.586c0-2.03,1.651-3.682,3.682-3.682l32.095,0 c0.98,0,1.905,0.383,2.603,1.078l6.157,6.158c0.696,0.696,1.08,1.62,1.08,2.603v45.549c0,2.03-1.652,3.682-3.683,3.682H20.467z M20.467,13.18c-0.775,0-1.406,0.631-1.406,1.407v51.707c0,0.775,0.631,1.406,1.406,1.406H58.72c0.776,0,1.407-0.631,1.407-1.406 V20.744c0-0.018-0.02-0.13-0.023-0.147c-0.014-0.099-0.108-0.214-0.209-0.214h-3.721c-1.792,0-3.25-1.457-3.25-3.249v-3.722 c0-0.1-0.074-0.184-0.172-0.198c-0.078-0.02-0.129-0.034-0.189-0.034L20.467,13.18z M54.507,14.625 c-0.026,0-0.052,0.005-0.077,0.016c-0.074,0.031-0.123,0.104-0.123,0.185v2.309c0,1.028,0.838,1.865,1.867,1.865h2.307 c0.081,0,0.154-0.049,0.185-0.124c0.031-0.075,0.015-0.161-0.043-0.218l-3.974-3.974C54.609,14.645,54.559,14.625,54.507,14.625z"></path></svg>