<svg xmlns="http://www.w3.org/2000/svg" xmlns:xlink="http://www.w3.org/1999/xlink" id="Element_17" x="0px" y="0px" width="100px" height="100px" viewBox="0 0 100 100" xml:space="preserve"><g> <path d="M70.067,29.882c-5.534-5.518-12.302-8.315-20.114-8.315c-7.823,0-14.591,2.798-20.116,8.317 C24.317,35.403,21.518,42.17,21.518,50c0,7.831,2.799,14.6,8.319,20.116c5.522,5.519,12.29,8.317,20.116,8.317 c7.821,0,14.59-2.799,20.118-8.319c5.519-5.521,8.317-12.289,8.317-20.116C78.389,42.172,75.589,35.404,70.067,29.882z M67.962,68.013c-5.016,5.012-10.906,7.448-18.009,7.448c-7.106,0-12.998-2.437-18.01-7.448c-5.01-5.005-7.445-10.896-7.445-18.01 c0-7.114,2.435-13.005,7.445-18.009c5.016-5.011,10.907-7.447,18.01-7.447c7.093,0,12.983,2.436,18.009,7.446 c5.012,5.012,7.447,10.903,7.447,18.01C75.409,57.112,72.974,63.004,67.962,68.013z"></path> <rect x="48.164" y="35.473" width="3.594" height="3.594"></rect> <rect x="48.164" y="45.654" width="3.594" height="18.866"></rect></g></svg>