<svg xmlns="http://www.w3.org/2000/svg" xmlns:xlink="http://www.w3.org/1999/xlink" id="Element_23" x="0px" y="0px" width="80px" height="80px" viewBox="0 0 80 80" xml:space="preserve"><g> <path fill="#030303" stroke="#000000" stroke-width="0.5" stroke-miterlimit="10" d="M75.254,13.016 c-0.613-0.615-1.426-0.954-2.289-0.954H7.25c-1.792,0-3.25,1.472-3.25,3.282v49.312c0,1.811,1.458,3.281,3.25,3.281h65.715 c1.793,0,3.252-1.471,3.252-3.281V15.344C76.217,14.464,75.875,13.637,75.254,13.016z M7.25,14.351h65.715 c0.537,0,0.99,0.456,0.99,0.996v9.459H32.49H15.322H6.262v-9.459C6.262,14.807,6.715,14.351,7.25,14.351z M33.49,27.806v21.708 c0,0.553-0.449,1-1,1H15.322c-0.551,0-1-0.447-1-1V27.806c0-0.551,0.449-1,1-1H32.49C33.041,26.806,33.49,27.254,33.49,27.806z M72.965,65.65H7.25c-0.537,0-0.99-0.455-0.99-0.994V26.806h6.247c-0.112,0.314-0.185,0.647-0.185,1v21.708c0,1.654,1.346,3,3,3 H32.49c1.654,0,3-1.346,3-3V27.806c0-0.353-0.072-0.686-0.185-1h38.649v37.851C73.955,65.195,73.502,65.65,72.965,65.65z"></path> <path fill="#030303" stroke="#000000" stroke-width="0.5" stroke-miterlimit="10" d="M13.563,20.672h3.339 c0.43,0,0.78-0.354,0.78-0.789c0-0.434-0.351-0.788-0.78-0.788h-3.339c-0.43,0-0.78,0.354-0.78,0.788 C12.783,20.318,13.134,20.672,13.563,20.672z"></path> <path fill="#030303" stroke="#000000" stroke-width="0.5" stroke-miterlimit="10" d="M21.355,20.672h3.34 c0.43,0,0.779-0.354,0.779-0.789c0-0.434-0.35-0.788-0.779-0.788h-3.34c-0.429,0-0.779,0.354-0.779,0.788 C20.576,20.318,20.927,20.672,21.355,20.672z"></path> <path fill="#030303" stroke="#000000" stroke-width="0.5" stroke-miterlimit="10" d="M29.148,20.672h3.34 c0.43,0,0.778-0.354,0.778-0.789c0-0.434-0.349-0.788-0.778-0.788h-3.34c-0.43,0-0.779,0.354-0.779,0.788 C28.369,20.318,28.719,20.672,29.148,20.672z"></path> <path fill="#030303" stroke="#000000" stroke-width="0.5" stroke-miterlimit="10" d="M17.716,32.75h11.876 c0.43,0,0.78-0.354,0.78-0.789c0-0.435-0.351-0.788-0.78-0.788H17.716c-0.429,0-0.778,0.353-0.778,0.788 C16.938,32.396,17.287,32.75,17.716,32.75z"></path> <path fill="#030303" stroke="#000000" stroke-width="0.5" stroke-miterlimit="10" d="M17.716,37.239h9.093 c0.43,0,0.779-0.354,0.779-0.789c0-0.435-0.35-0.788-0.779-0.788h-9.093c-0.429,0-0.778,0.353-0.778,0.788 C16.938,36.886,17.287,37.239,17.716,37.239z"></path> <path fill="#030303" stroke="#000000" stroke-width="0.5" stroke-miterlimit="10" d="M17.716,41.744H28.54 c0.429,0,0.778-0.352,0.778-0.786c0-0.436-0.35-0.789-0.778-0.789H17.716c-0.429,0-0.778,0.353-0.778,0.787 C16.938,41.393,17.287,41.744,17.716,41.744z"></path> <path fill="#030303" stroke="#000000" stroke-width="0.5" stroke-miterlimit="10" d="M17.716,46.225h6.866 c0.43,0,0.779-0.354,0.779-0.789s-0.35-0.787-0.779-0.787h-6.866c-0.429,0-0.778,0.352-0.778,0.787S17.287,46.225,17.716,46.225z"></path></g></svg>