<svg xmlns="http://www.w3.org/2000/svg" xmlns:xlink="http://www.w3.org/1999/xlink" x="0px" y="0px" width="70px" height="70px" viewBox="0 0 70 70" xml:space="preserve"><g> <path d="M58.023,22.854c-2.264-3.855-5.369-6.96-9.227-9.228c-3.848-2.262-8.092-3.408-12.616-3.408s-8.77,1.146-12.616,3.408 c-3.856,2.267-6.961,5.371-9.227,9.227c-2.261,3.846-3.407,8.09-3.407,12.615s1.146,8.77,3.407,12.614 c2.267,3.858,5.371,6.963,9.227,9.228c3.848,2.262,8.093,3.408,12.616,3.408s8.769-1.146,12.616-3.408 c3.855-2.266,6.961-5.37,9.227-9.227c2.261-3.847,3.407-8.091,3.407-12.615S60.285,26.699,58.023,22.854z M36.181,58.374 c-4.104,0-7.961-1.042-11.461-3.097c-3.491-2.048-6.3-4.856-8.349-8.349c-2.055-3.499-3.096-7.355-3.096-11.461 s1.041-7.962,3.096-11.461c2.049-3.491,4.857-6.301,8.348-8.349c3.501-2.055,7.357-3.097,11.462-3.097s7.96,1.042,11.461,3.097 c3.491,2.048,6.3,4.856,8.349,8.349c2.055,3.499,3.096,7.355,3.096,11.461s-1.041,7.962-3.096,11.461 c-2.049,3.492-4.857,6.301-8.349,8.349C44.141,57.332,40.285,58.374,36.181,58.374z"></path></g><path fill="" d="M38.258,35.469l7.684-7.684c0.574-0.575,0.574-1.505,0-2.079c-0.574-0.573-1.504-0.575-2.078,0l-7.684,7.685 l-7.683-7.686c-0.575-0.574-1.507-0.574-2.079,0c-0.574,0.575-0.574,1.506,0,2.079l7.684,7.685l-7.684,7.684 c-0.574,0.576-0.574,1.506,0,2.079c0.287,0.286,0.663,0.43,1.04,0.43s0.752-0.144,1.04-0.43l7.684-7.685l7.684,7.685 c0.286,0.287,0.662,0.431,1.039,0.431s0.752-0.144,1.039-0.431c0.576-0.575,0.576-1.505,0-2.079L38.258,35.469z"></path></svg>