<svg xmlns="http://www.w3.org/2000/svg" xmlns:xlink="http://www.w3.org/1999/xlink" id="Element_39" x="0px" y="0px" width="80px" height="80px" viewBox="0 0 80 80" xml:space="preserve"><path fill="none" stroke="#000000" stroke-width="2.7" stroke-miterlimit="10" d="M34.111,12.408h15.584h0.09 c1.957,0,3.074,0.942,3.542,2.301l0.149,0.53l1.672,5.888"></path><path fill="none" stroke="#000000" stroke-width="2.7" stroke-miterlimit="10" d="M18.442,12.408H34h0.112 c1.958,0,3.231,1.031,3.595,2.476l1.773,6.243"></path><path fill="none" stroke="#000000" stroke-width="2.7" stroke-miterlimit="10" d="M11.671,12.408h7.079h0.134 c1.958,0,3.173,0.996,3.542,2.301l0.067,0.245l1.744,6.173c0,0,30.372,0,41.477,0h0.28c2.057,0,3.723,1.692,3.723,3.784v0.184 v32.144v0.279c0,2.26-1.666,4.089-3.723,4.089h-0.28H12.333h-0.399c-1.992,0-3.603-1.829-3.603-4.089v-0.135V16.335v-0.101 c0-2.115,1.611-3.826,3.603-3.826"></path></svg>