<svg xmlns="http://www.w3.org/2000/svg" xmlns:xlink="http://www.w3.org/1999/xlink" id="Element_9" x="0px" y="0px" width="80px" height="80px" viewBox="0 0 80 80" xml:space="preserve"><g> <path fill="none" stroke="#030303" stroke-width="2.7" stroke-miterlimit="10" d="M37.546,65.498c0,1.65-1.35,3-3,3h-19 c-1.65,0-3-1.35-3-3v-19c0-1.649,1.35-3,3-3h19c1.65,0,3,1.351,3,3V65.498z"></path></g><polyline fill="none" stroke="#030303" stroke-width="2.7" stroke-miterlimit="10" points="46.582,23.619 57.546,23.619 57.546,34.485 "></polyline><g> <path fill="none" stroke="#030303" stroke-width="2.7" stroke-miterlimit="10" d="M12.546,39.499v-21.88c0-1.65,1.35-3,3-3h48 c1.649,0,3,1.35,3,3v48c0,1.649-1.351,3-3,3h-22"></path></g><line fill="none" stroke="#030303" stroke-width="2.7" stroke-miterlimit="10" x1="57.546" y1="23.619" x2="41.193" y2="39.971"></line></svg>