<svg xmlns="http://www.w3.org/2000/svg" xmlns:xlink="http://www.w3.org/1999/xlink" id="Element_3" x="0px" y="0px" width="80px" height="80px" viewBox="0 0 80 80" xml:space="preserve"><g> <path d="M71.612,39.006c-0.314-0.42-1.229-0.922-3.797-0.922c-1.674,0-3.819,0.208-6.56,0.635l-0.268,0.042l0.284,1.691 l0.246-0.038c2.355-0.37,4.99-0.609,6.711-0.609c0.284,0,0.554,0.007,0.826,0.021l0.975,0.053l-0.405,0.879 c-2.603,5.659-2.596,9.772-2.592,11.982l-0.011,1.298l-0.743-0.094c-3.95-0.492-8.273-1.747-11.284-3.275 c-1.159-0.59-2.104-1.566-1.205-4.67l-1.67-0.488c-0.956,3.301-0.276,5.486,2.075,6.68c3.517,1.783,8.445,3.147,12.861,3.561 c0.648,0.06,1.043-0.251,1.144-0.34c0.551-0.497,0.575-1.257,0.573-2.67c-0.004-2.251-0.011-6.438,2.934-12.299 C71.954,39.942,71.92,39.419,71.612,39.006z"></path> <path d="M8.295,40.441c2.939,5.856,2.934,10.047,2.931,12.298c-0.001,1.414,0.024,2.174,0.577,2.674 c0.117,0.104,0.448,0.346,0.974,0.346c0.054,0,0.109-0.003,0.167-0.008c4.426-0.417,9.353-1.781,12.859-3.561 c2.355-1.196,3.035-3.382,2.075-6.682l-1.669,0.49c0.899,3.112-0.101,4.108-1.204,4.67c-3.015,1.528-7.339,2.783-11.286,3.275 l-0.748,0.094l-0.003-1.297c0.002-2.214,0.006-6.334-2.591-11.979L9.975,39.89l0.969-0.058c0.251-0.015,0.539-0.022,0.857-0.022 c1.771,0,4.273,0.227,6.693,0.607l0.233,0.035l0.284-1.69l-0.258-0.041c-2.736-0.429-4.884-0.637-6.564-0.637 c-2.572,0-3.489,0.504-3.805,0.927C8.081,39.416,8.048,39.951,8.295,40.441z"></path> <path d="M64.225,30.435c0.203-0.743,0.1-1.522-0.293-2.192c-0.392-0.67-1.026-1.148-1.787-1.348 c-0.1-0.027-10.297-2.654-22.132-2.654c-12.964,0-21.654,2.496-22.018,2.603c-1.54,0.454-2.455,2.065-2.039,3.592l4.249,15.564 c0.338,1.234,1.478,2.097,2.771,2.097c0.289,0,0.573-0.042,0.844-0.125c0.356-0.104,8.764-2.521,15.909-2.521 c0.229,0,0.457,0.002,0.686,0.008c7.697,0.166,15.115,2.272,15.936,2.512c0.277,0.084,0.563,0.127,0.852,0.127 c1.295,0,2.435-0.861,2.771-2.096L64.225,30.435z M58.248,45.547c-0.114,0.444-0.593,0.793-1.089,0.793 c-0.103,0-0.202-0.016-0.295-0.047c-0.323-0.097-8.072-2.401-16.412-2.586c-0.244-0.006-0.488-0.008-0.732-0.008 c-7.762,0-16.063,2.493-16.412,2.599c-0.107,0.031-0.21,0.046-0.316,0.046c-0.496,0-0.932-0.328-1.06-0.797l-4.25-15.565 c-0.168-0.616,0.211-1.288,0.827-1.467c0.929-0.259,9.413-2.528,21.505-2.528c11.449,0,21.256,2.488,21.668,2.594 c0.299,0.076,0.549,0.266,0.705,0.534c0.153,0.265,0.194,0.571,0.117,0.863L58.248,45.547z"></path></g></svg>