<svg xmlns="http://www.w3.org/2000/svg" xmlns:xlink="http://www.w3.org/1999/xlink" id="Element_1" x="0px" y="0px" width="80px" height="80px" viewBox="0 0 80 80" xml:space="preserve"><g> <path d="M58.479,39.316h-36.39c-0.513,0-0.931,0.49-0.931,1.093c0,0.604,0.418,1.095,0.931,1.095h36.39 c0.512,0,0.929-0.491,0.929-1.095C59.407,39.806,58.99,39.316,58.479,39.316z"></path> <path d="M58.304,45.359H22.089c-0.513,0-0.931,0.49-0.931,1.094c0,0.602,0.418,1.092,0.931,1.092h36.215 c0.511,0,0.927-0.49,0.927-1.092C59.23,45.85,58.814,45.359,58.304,45.359z"></path> <path d="M40.588,51.4H22.089c-0.513,0-0.931,0.492-0.931,1.096c0,0.602,0.418,1.092,0.931,1.092h18.499 c0.512,0,0.928-0.49,0.928-1.092C41.516,51.893,41.1,51.4,40.588,51.4z"></path> <path d="M69.377,21.883c0-2.711-1.636-4.756-3.805-4.756h-49.18c-2.15,0-3.771,2.044-3.771,4.756v37.05 c0,2.098,1.763,3.939,3.771,3.939h49.18c2.026,0,3.805-1.84,3.805-3.938V21.883z M67.295,58.529c0,1.118-0.789,2.063-1.723,2.063 h-49.18c-0.916,0-1.689-0.945-1.689-2.066V31.573l0.138,0.014c0.024,0.002,0.05,0.003,0.075,0.003h52.379V58.529z M67.295,29.597 H14.916c-0.023,0-0.048,0-0.071,0.004l-0.142,0.019v-8.143c0-1.119,0.773-2.064,1.689-2.064h49.18c0.934,0,1.723,0.945,1.723,2.064 V29.597z"></path> <path d="M30.322,23.792H21.6c-0.471,0-0.854,0.448-0.854,0.999c0,0.551,0.384,1,0.854,1h8.723c0.473,0,0.857-0.449,0.857-1 C31.18,24.241,30.795,23.792,30.322,23.792z"></path> <path d="M41.94,23.792h-0.562c-0.471,0-0.854,0.448-0.854,0.999c0,0.551,0.384,1,0.854,1h0.562c0.471,0,0.854-0.449,0.854-1 C42.794,24.241,42.411,23.792,41.94,23.792z"></path> <path d="M34.645,23.792h-0.561c-0.472,0-0.855,0.448-0.855,0.999c0,0.551,0.384,1,0.855,1h0.561c0.473,0,0.857-0.449,0.857-1 C35.501,24.241,35.116,23.792,34.645,23.792z"></path> <path d="M38.291,23.792H37.73c-0.471,0-0.854,0.448-0.854,0.999c0,0.551,0.384,1,0.854,1h0.561c0.473,0,0.856-0.449,0.856-1 C39.147,24.241,38.764,23.792,38.291,23.792z"></path> <path d="M62.157,23.028c-0.084-0.21-0.234-0.316-0.446-0.316h-6.187c-0.212,0-0.361,0.107-0.445,0.318s-0.051,0.389,0.101,0.544 l3.091,3.146c0.2,0.206,0.501,0.203,0.691,0.001l3.096-3.147C62.208,23.418,62.24,23.24,62.157,23.028z"></path></g></svg>