<svg xmlns="http://www.w3.org/2000/svg" xmlns:xlink="http://www.w3.org/1999/xlink" id="Element_8" x="0px" y="0px" width="80px" height="80px" viewBox="0 0 80 80" xml:space="preserve"><g> <path d="M66.25,23.76c0-1.935-1.586-3.51-3.536-3.51H17.285c-1.95,0-3.536,1.575-3.536,3.51v18.8c0,1.935,1.586,3.509,3.536,3.509 h16.508l-0.116-2.006H17.285c-0.833,0-1.512-0.674-1.512-1.503v-18.8c0-0.829,0.678-1.503,1.512-1.503h45.429 c0.834,0,1.512,0.674,1.512,1.503v18.8c0,0.829-0.678,1.503-1.512,1.503h-9.42l2.81,2.006h6.61c1.95,0,3.536-1.574,3.536-3.509 V23.76z"></path> <path d="M47.228,60.99l-5.216-8.572l-5.811,5.184l-1.056-24.527L54.82,47.247l-7.475,2.26l5.252,7.987L47.228,60.99z M42.4,49.825 l5.364,8.817l2.507-1.632l-5.56-8.454l6.382-1.93l-14.119-10.17l0.755,17.535L42.4,49.825z"></path></g></svg>