<svg xmlns="http://www.w3.org/2000/svg" xmlns:xlink="http://www.w3.org/1999/xlink" id="Element_45" x="0px" y="0px" width="80px" height="80px" viewBox="0 0 80 80" xml:space="preserve"><g> <path fill="none" stroke="#393E48" stroke-width="3" d="M-2.445,64.166V11.838c0-1.557,1.266-2.821,2.818-2.821h76.879 c1.557,0,2.819,1.265,2.819,2.821v52.328"></path> <polyline fill="none" stroke="#393E48" stroke-width="3" points="74.141,13.335 74.141,58.619 3.485,58.619 3.485,13.335 "></polyline> <path fill="none" stroke="#393E48" stroke-width="3" d="M92.365,66.967v-3.063H47.854h-0.585c-0.424,1.465-1.76,1.434-3.361,1.434 H33.72c-1.602,0-2.938,0.031-3.361-1.434h-0.585h-44.513v3.063c0,0,3.703,2.764,6.424,2.764h34.073h26.11h34.073 C88.662,69.73,92.365,66.967,92.365,66.967z"></path> <g> <g> <polygon fill="none" stroke="#393E48" stroke-width="3" stroke-linejoin="round" stroke-miterlimit="10" points="38.812,57.948 23.68,41.57 8.541,25.195 38.812,25.195 69.086,25.195 53.947,41.57 "></polygon> <polygon fill="none" stroke="#393E48" stroke-width="3" stroke-linejoin="round" stroke-miterlimit="10" points="38.812,57.948 32.14,41.57 25.468,25.195 38.812,25.195 52.16,25.195 45.486,41.57 "></polygon> </g> <g> <polygon fill="none" stroke="#393E48" stroke-width="3" stroke-linejoin="round" stroke-miterlimit="10" points="8.541,25.271 38.812,25.271 69.086,25.271 60.758,14.861 16.869,14.861 "></polygon> <polygon fill="none" stroke="#393E48" stroke-width="3" stroke-linejoin="bevel" stroke-miterlimit="10" points="38.812,14.759 25.468,25.271 38.812,25.271 52.16,25.271 "></polygon> <polygon fill="none" stroke="#393E48" stroke-width="3" stroke-linejoin="round" stroke-miterlimit="10" points="25.359,25.271 16.895,14.861 16.869,14.861 8.541,25.271 "></polygon> <polygon fill="none" stroke="#393E48" stroke-width="3" stroke-linejoin="round" stroke-miterlimit="10" points="52.27,25.271 60.736,14.861 60.758,14.861 69.086,25.271 "></polygon> </g> </g></g></svg>