<svg xmlns="http://www.w3.org/2000/svg" xmlns:xlink="http://www.w3.org/1999/xlink" id="Element_27" x="0px" y="0px" width="80px" height="80px" viewBox="0 0 80 80" xml:space="preserve"><path fill="#1A1818" stroke="#000000" stroke-width="0.5" stroke-miterlimit="10" d="M72.693,43.686V13.434 c0-2.648-2.199-4.803-4.901-4.803H5.466c-2.678,0-4.857,2.155-4.857,4.803v42.144c0,2.648,2.179,4.804,4.857,4.804h52.427 c-0.136-0.77-0.21-1.545-0.219-2.313H5.466c-1.305,0-2.408-1.141-2.408-2.491V13.434c0-1.35,1.103-2.491,2.408-2.491h62.326 c1.329,0,2.452,1.141,2.452,2.491v30.332C71.17,43.649,71.926,43.629,72.693,43.686z"></path><path fill="#030303" d="M78.684,63.363l-0.397-0.298l0.476-0.142c0.453-0.136,0.77-0.557,0.77-1.023 c0-0.508-0.366-0.948-0.871-1.049l-14.671-0.027l-0.262-1.249h13.1c0.625,0,1.788,0,2.159-1.684l2.079-9.446 c0.154-0.537,0.063-1.071-0.247-1.481c-0.334-0.438-0.888-0.699-1.48-0.699H60.955l-0.111-0.534c-0.174-1.11-0.96-1.767-2.105-1.767 l-4.458-0.002c-0.601,0-1.09,0.48-1.09,1.071s0.489,1.071,1.09,1.071l4.426,0.005l0.042,0.199l3.135,15.046 c0.16,0.631,0.468,1.085,0.912,1.34l0.389,0.223l-0.394,0.214c-1.007,0.547-1.633,1.586-1.633,2.711c0,1.721,1.421,3.12,3.167,3.12 s3.166-1.399,3.166-3.12c0-0.949-0.432-1.834-1.184-2.429l-0.564-0.446h9.603l-0.566,0.446c-0.753,0.594-1.185,1.479-1.185,2.429 c0,1.721,1.423,3.12,3.171,3.12c1.745,0,3.165-1.399,3.165-3.12C79.93,64.86,79.476,63.957,78.684,63.363z M61.403,48.405h17.454 l-1.997,9.029H63.282L61.403,48.405z M64.325,66.819c-0.549,0-0.995-0.438-0.995-0.978c0-0.54,0.446-0.979,0.995-0.979 c0.548,0,0.993,0.438,0.993,0.979C65.318,66.381,64.873,66.819,64.325,66.819z M76.765,66.819c-0.549,0-0.995-0.438-0.995-0.978 c0-0.54,0.446-0.979,0.995-0.979c0.547,0,0.992,0.438,0.992,0.979C77.757,66.381,77.312,66.819,76.765,66.819z"></path><path fill="#030303" d="M54.68,31.783c-0.309-0.411-1.098-0.62-2.344-0.62c-0.783,0-1.76,0.084-2.941,0.247l1.158-4.245 c0.133-0.486,0.064-0.993-0.189-1.428c-0.254-0.436-0.666-0.747-1.158-0.875c-0.055-0.015-5.873-1.506-12.547-1.506 c-7.356,0-12.281,1.417-12.487,1.478c-0.998,0.294-1.59,1.34-1.32,2.331l1.163,4.261c-3.121-0.438-4.883-0.321-5.392,0.359 c-0.229,0.306-0.257,0.706-0.074,1.069c1.63,3.249,1.627,5.572,1.626,6.823c0,0.769-0.001,1.323,0.411,1.696 c0.087,0.078,0.333,0.258,0.714,0.258c0.04,0,0.081-0.002,0.118-0.006c2.523-0.238,5.336-1.017,7.342-2.035 c1.161-0.589,1.656-1.604,1.502-3.012c1.751-0.371,4.099-0.762,6.238-0.762c0.127,0,0.253,0.001,0.381,0.004 c2.274,0.049,4.5,0.4,6.166,0.741c-0.16,1.417,0.334,2.438,1.498,3.029c2.01,1.019,4.824,1.797,7.344,2.034 c0.039,0.004,0.078,0.004,0.115,0.006c0.389,0,0.633-0.182,0.721-0.262c0.406-0.367,0.406-0.922,0.404-1.691 c-0.002-1.248-0.006-3.571,1.629-6.825C54.936,32.491,54.908,32.091,54.68,31.783z M44.49,36.883 c0.701,0.169,1.172,0.304,1.309,0.343c0.182,0.055,0.367,0.083,0.553,0.083c0.842,0,1.584-0.562,1.805-1.366l0.816-2.989 c1.277-0.194,2.674-0.32,3.598-0.32c0.156,0,0.305,0.004,0.453,0.012l0.182,0.01l-0.074,0.162c-1.49,3.241-1.486,5.596-1.484,6.86 l-0.004,0.45l-0.141-0.018c-2.201-0.274-4.607-0.972-6.281-1.821C44.818,38.083,44.426,37.776,44.49,36.883z M28.082,38.288 c-1.675,0.85-4.083,1.547-6.283,1.821l-0.141,0.018l-0.001-0.449c0.001-1.267,0.003-3.626-1.484-6.858l-0.074-0.161l0.181-0.011 c0.137-0.008,0.294-0.012,0.469-0.012c0.976,0,2.349,0.125,3.686,0.333l0.812,2.974c0.221,0.805,0.962,1.367,1.804,1.367 c0.188,0,0.373-0.027,0.545-0.081c0.058-0.017,0.511-0.146,1.211-0.318C28.858,37.876,28.375,38.137,28.082,38.288z M27.17,35.805 c-0.229,0.063-0.415-0.059-0.467-0.249l-2.396-8.778c-0.059-0.215,0.079-0.458,0.293-0.52c0.52-0.145,5.275-1.417,12.06-1.417 c6.253,0,11.572,1.306,12.158,1.455c0.104,0.026,0.189,0.092,0.242,0.184c0.053,0.092,0.068,0.198,0.043,0.296l-2.402,8.784 c-0.043,0.168-0.248,0.315-0.467,0.244c-0.186-0.056-4.605-1.365-9.32-1.469c-0.14-0.003-0.28-0.004-0.419-0.004 C32.066,34.33,27.363,35.746,27.17,35.805z"></path></svg>